<svg width="150" height="60" viewBox="0 0 150 60" fill="none" xmlns="http://www.w3.org/2000/svg">
<path d="M91.3596 47.4452C83.2365 53.4596 71.4239 56.6625 61.2788 56.6625C47.0536 56.6625 34.2473 51.3955 24.5283 42.6054C23.7476 41.9289 24.457 40.968 25.3438 41.5019C35.8085 47.6226 48.7563 51.2886 62.0942 51.2886C71.1046 51.2886 81.0371 49.4023 90.1537 45.5233C91.5729 44.9539 92.7079 46.4485 91.3598 47.445M94.7654 43.5663C93.7367 42.2495 87.8832 42.9256 85.2585 43.2459C84.478 43.353 84.3362 42.6406 85.0457 42.1423C89.6926 38.869 97.3193 39.7939 98.2063 40.8968C99.0928 42.0003 97.958 49.6873 93.5946 53.3525C92.921 53.9222 92.2825 53.6016 92.5666 52.8543C93.5946 50.399 95.7944 44.9185 94.7654 43.5663ZM85.4358 18.9747V15.7721C85.4358 15.2738 85.7909 14.9537 86.2517 14.9537H100.477C100.938 14.9537 101.292 15.2736 101.292 15.7718V18.5121C101.292 18.9747 100.903 19.5798 100.229 20.505L92.8499 31.0749C95.5814 31.0034 98.4906 31.4304 100.974 32.8187C101.541 33.1388 101.683 33.6014 101.719 34.0643V37.4448C101.719 37.9074 101.222 38.4412 100.654 38.1921C96.2558 35.8791 90.4381 35.63 85.6141 38.2278C85.1174 38.5125 84.585 37.943 84.585 37.4804V34.2419C84.585 33.7081 84.585 32.8544 85.1172 32.0355L93.6659 19.7218H86.2165C85.7909 19.7576 85.436 19.4378 85.436 18.9744M33.4676 38.869H29.1395C28.7139 38.8331 28.3945 38.5484 28.359 38.1216V15.8077C28.359 15.3451 28.7494 14.9891 29.2108 14.9891H33.2543C33.6804 15.025 34.035 15.3453 34.035 15.7364V18.6551H34.1058C35.17 15.8436 37.1566 14.5267 39.817 14.5267C42.5129 14.5267 44.2156 15.8436 45.4572 18.6551C46.5215 15.8433 48.8978 14.5265 51.4522 14.5265C53.2615 14.5265 55.248 15.2738 56.454 16.982C57.8371 18.8686 57.5541 21.5732 57.5541 23.9572V38.0504C57.5541 38.4774 57.1635 38.8333 56.7024 38.8333H52.3742C51.9489 38.7977 51.5945 38.4771 51.5945 38.0504V26.2349C51.5945 25.3099 51.6651 22.961 51.4878 22.0714C51.1684 20.5767 50.1752 20.1498 48.9336 20.1498C47.8696 20.1498 46.8055 20.8615 46.3442 22.0002C45.8828 23.1389 45.9538 24.9896 45.9538 26.2708V38.0863C45.9538 38.513 45.564 38.869 45.1026 38.869H40.7745C40.3491 38.8331 39.9943 38.5127 39.9943 38.0858V26.2703C39.9943 23.7791 40.3846 20.1139 37.3338 20.1139C34.2125 20.1139 34.3541 23.6727 34.3541 26.2705V38.086C34.3186 38.5127 33.9642 38.869 33.4676 38.869ZM113.566 14.5621C119.987 14.5621 123.463 20.1139 123.463 27.1603C123.463 33.9572 119.632 39.367 113.566 39.367C107.252 39.367 103.811 33.8149 103.811 26.9112C103.811 19.9709 107.287 14.5619 113.566 14.5619M113.602 19.1172C110.409 19.1172 110.196 23.4941 110.196 26.199C110.196 28.9393 110.161 34.7404 113.566 34.7404C116.936 34.7404 117.078 30.0428 117.078 27.1957C117.078 25.3099 117.007 23.0679 116.439 21.2885C115.943 19.7225 114.985 19.1177 113.602 19.1177M131.835 38.869H127.507C127.082 38.8331 126.727 38.5127 126.727 38.0858V15.7721C126.762 15.381 127.117 15.0603 127.543 15.0603H131.551C131.941 15.096 132.261 15.3451 132.331 15.7011V19.1172H132.402C133.609 16.0568 135.311 14.5977 138.291 14.5977C140.243 14.5977 142.122 15.3095 143.328 17.2309C144.464 19.0106 144.464 22.0356 144.464 24.1712V38.1924C144.428 38.584 144.073 38.9041 143.648 38.9041H139.319C138.93 38.8687 138.61 38.5842 138.539 38.1926V26.0931C138.539 23.6374 138.823 20.0785 135.808 20.0785C134.744 20.0785 133.786 20.7902 133.29 21.8579C132.686 23.2101 132.615 24.5626 132.615 26.0929V38.1214C132.651 38.513 132.296 38.8687 131.835 38.8687" fill="white"/>
<path d="M81.8176 34.8118C81.0371 33.7082 80.1856 32.8189 80.1856 30.7903V24.0286C80.1856 21.1817 80.3634 18.5481 78.2704 16.5552C76.6032 14.9539 73.8362 14.3844 71.7432 14.3844C67.6286 14.3844 63.0175 15.9147 62.059 21.0392C61.9529 21.5731 62.343 21.8578 62.6979 21.9291L66.8832 22.3914C67.2731 22.3914 67.5571 21.9998 67.6281 21.6085C67.9832 19.8646 69.4374 19.0102 71.1045 19.0102C71.991 19.0102 73.02 19.3308 73.5522 20.1494C74.1556 21.0034 74.0843 22.2489 74.0843 23.2808V23.8505C71.5657 24.1352 68.2663 24.3131 65.9255 25.3452C63.2295 26.5195 61.3138 28.9394 61.3138 32.4624C61.3138 36.9464 64.152 39.2243 67.8057 39.2243C70.8565 39.2243 72.5592 38.477 74.936 36.0571C75.7157 37.1956 75.964 37.7296 77.4192 38.9393C77.738 39.1177 78.1641 39.0821 78.4472 38.833C79.3344 38.05 80.8956 36.6976 81.8176 35.9502C82.1722 35.6655 82.1014 35.2029 81.8176 34.8118ZM73.2681 32.8189C72.5944 34.0288 71.4946 34.8118 70.2531 34.8118C68.5861 34.8118 67.6284 33.5306 67.6284 31.6445C67.6284 27.9427 70.9275 27.2668 74.0846 27.2668V28.2277C74.0846 29.9359 74.1201 31.3242 73.2686 32.8189H73.2681ZM25.0249 34.7762C24.2442 33.6726 23.3927 32.7832 23.3927 30.7547V23.993C23.3927 21.1461 23.57 18.5125 21.4772 16.5195C19.8103 14.9182 17.0431 14.3488 14.95 14.3488C10.8355 14.3488 6.22354 15.8791 5.26579 21.0036C5.15951 21.5375 5.54961 21.8222 5.90446 21.8934L10.09 22.3917C10.4799 22.3917 10.764 22.0001 10.835 21.6087C11.1896 19.8649 12.6439 19.0104 14.3114 19.0104C15.2336 19.0104 16.2269 19.331 16.759 20.1496C17.3619 21.0036 17.2911 22.2492 17.2911 23.281V23.8507C14.7725 24.1355 11.4731 24.3133 9.13229 25.3454C6.4356 26.5197 4.52035 28.9396 4.52035 32.4626C4.52035 36.9467 7.35858 39.2246 11.012 39.2246C14.0628 39.2246 15.7655 38.4772 18.1421 36.0573C18.9226 37.1958 19.1709 37.7299 20.6253 38.9396C20.9446 39.118 21.3702 39.0823 21.654 38.8332C22.541 38.0503 24.1017 36.6978 25.0241 35.9149C25.343 35.6309 25.3072 35.1675 25.0241 34.7764L25.0249 34.7762ZM16.4754 32.8189C15.8015 34.0288 14.7017 34.8118 13.4602 34.8118C11.793 34.8118 10.8355 33.5306 10.8355 31.6445C10.8355 27.9427 14.1341 27.2668 17.2916 27.2668V28.2277C17.2916 29.9359 17.3269 31.3242 16.4754 32.8189Z" fill="white"/>
</svg>
