<svg width="654" height="285" viewBox="0 0 654 285" fill="none" xmlns="http://www.w3.org/2000/svg">
<g filter="url(#filter0_d_1_1578)">
<rect width="654" height="284.348" rx="8.53043" fill="#151515"/>
<rect x="0.355435" y="0.355435" width="653.289" height="283.637" rx="8.175" stroke="#87936D" stroke-opacity="0.15" stroke-width="0.710869"/>
</g>
<path d="M64.6891 198.828L51.1826 210.341V240.629H619.878L619.523 57.9358L604.95 86.0335C591.443 114.487 564.43 171.393 537.417 178.645C510.404 185.898 483.391 143.497 456.378 121.916C429.365 100.335 402.352 99.5746 375.339 126.869C348.326 154.163 321.313 209.513 294.3 211.093C267.287 212.674 240.274 160.485 213.261 139.885C186.248 119.285 159.235 130.273 132.222 147.281C105.209 164.288 78.1956 187.315 64.6891 198.828Z" fill="url(#paint0_linear_1_1578)" fill-opacity="0.1"/>
<path opacity="0.8" d="M52.6044 210.341L66.077 198.828C79.5497 187.315 106.495 164.288 133.44 147.281C160.386 130.273 187.331 119.285 214.276 139.885C241.222 160.485 268.167 212.673 295.112 211.093C322.058 209.513 349.003 154.163 375.948 126.869C402.894 99.5746 429.839 100.335 456.784 121.916C483.73 143.497 510.675 185.898 537.62 178.645C564.566 171.393 591.511 114.487 604.984 86.0335L618.457 57.5803" stroke="url(#paint1_linear_1_1578)" stroke-width="2.13261" stroke-linecap="round"/>
<path d="M66.6284 259.648V254.922L65.6474 255.152V254.316L67.0891 253.677H67.763V259.648H66.6284ZM68.7758 259.648V258.854C69.1397 258.553 69.4923 258.255 69.8335 257.959C70.1804 257.663 70.4875 257.37 70.7548 257.08C71.0278 256.79 71.2439 256.509 71.4031 256.236C71.5681 255.957 71.6505 255.687 71.6505 255.425C71.6505 255.181 71.5823 254.965 71.4458 254.777C71.315 254.589 71.096 254.495 70.7889 254.495C70.4762 254.495 70.2402 254.598 70.0809 254.803C69.9217 255.007 69.8421 255.255 69.8421 255.545H68.7843C68.7957 255.107 68.8923 254.743 69.0743 254.453C69.2563 254.157 69.498 253.938 69.7994 253.796C70.1008 253.648 70.4392 253.574 70.8145 253.574C71.423 253.574 71.8951 253.742 72.2306 254.077C72.5718 254.407 72.7424 254.837 72.7424 255.366C72.7424 255.695 72.6656 256.017 72.5121 256.329C72.3642 256.642 72.168 256.944 71.9235 257.234C71.679 257.524 71.4145 257.797 71.1302 258.053C70.8458 258.303 70.57 258.536 70.3027 258.752H72.8874V259.648H68.7758Z" fill="#89936D"/>
<path d="M120.124 259.648V254.922L119.143 255.152V254.316L120.585 253.677H121.259V259.648H120.124ZM124.37 259.75C123.977 259.75 123.622 259.682 123.304 259.545C122.985 259.403 122.729 259.187 122.536 258.897C122.342 258.607 122.24 258.243 122.229 257.805H123.304C123.309 258.095 123.403 258.34 123.585 258.539C123.773 258.732 124.034 258.829 124.37 258.829C124.688 258.829 124.933 258.741 125.104 258.564C125.274 258.388 125.359 258.166 125.359 257.899C125.359 257.586 125.246 257.35 125.018 257.191C124.796 257.026 124.509 256.944 124.157 256.944H123.713V256.048H124.165C124.455 256.048 124.697 255.98 124.89 255.843C125.084 255.707 125.18 255.505 125.18 255.238C125.18 255.016 125.106 254.84 124.958 254.709C124.816 254.572 124.617 254.504 124.361 254.504C124.083 254.504 123.864 254.586 123.705 254.751C123.551 254.916 123.466 255.118 123.449 255.357H122.382C122.405 254.805 122.596 254.37 122.954 254.052C123.318 253.733 123.787 253.574 124.361 253.574C124.771 253.574 125.115 253.648 125.394 253.796C125.678 253.938 125.891 254.129 126.033 254.367C126.181 254.606 126.255 254.871 126.255 255.161C126.255 255.496 126.161 255.781 125.974 256.014C125.792 256.241 125.564 256.395 125.291 256.475C125.627 256.543 125.9 256.708 126.11 256.969C126.321 257.225 126.426 257.549 126.426 257.942C126.426 258.272 126.346 258.573 126.187 258.846C126.028 259.119 125.794 259.338 125.487 259.503C125.186 259.668 124.813 259.75 124.37 259.75Z" fill="#89936D"/>
<path d="M174.62 259.648V254.922L173.639 255.152V254.316L175.08 253.677H175.754V259.648H174.62ZM179.642 259.648V258.539H176.699V257.669L179.497 253.677H180.734V257.592H181.519V258.539H180.734V259.648H179.642ZM177.867 257.592H179.71V254.879L177.867 257.592Z" fill="#89936D"/>
<path d="M229.115 259.648V254.922L228.134 255.152V254.316L229.576 253.677H230.25V259.648H229.115ZM233.549 259.75C233.111 259.75 232.733 259.673 232.414 259.52C232.102 259.366 231.854 259.156 231.672 258.889C231.496 258.616 231.394 258.309 231.365 257.967H232.431C232.483 258.212 232.608 258.417 232.807 258.582C233.006 258.741 233.253 258.82 233.549 258.82C233.867 258.82 234.126 258.704 234.325 258.471C234.53 258.237 234.632 257.947 234.632 257.601C234.632 257.242 234.53 256.958 234.325 256.747C234.126 256.537 233.873 256.432 233.566 256.432C233.31 256.432 233.088 256.494 232.901 256.62C232.713 256.745 232.579 256.901 232.5 257.089H231.45L231.962 253.677H235.272V254.632H232.781L232.508 256.014C232.633 255.877 232.804 255.766 233.02 255.681C233.236 255.59 233.478 255.545 233.745 255.545C234.172 255.545 234.527 255.641 234.811 255.835C235.096 256.022 235.312 256.273 235.46 256.585C235.608 256.892 235.681 257.228 235.681 257.592C235.681 258.007 235.59 258.377 235.409 258.701C235.232 259.025 234.982 259.281 234.658 259.469C234.339 259.656 233.97 259.75 233.549 259.75Z" fill="#89936D"/>
<path d="M283.611 259.648V254.922L282.63 255.152V254.316L284.072 253.677H284.746V259.648H283.611ZM288.147 259.75C287.698 259.75 287.319 259.668 287.012 259.503C286.705 259.338 286.458 259.116 286.27 258.837C286.083 258.559 285.946 258.249 285.861 257.908C285.781 257.566 285.741 257.217 285.741 256.858C285.741 256.193 285.835 255.616 286.023 255.127C286.21 254.632 286.481 254.251 286.833 253.984C287.186 253.711 287.612 253.574 288.113 253.574C288.522 253.574 288.869 253.657 289.153 253.822C289.443 253.981 289.668 254.191 289.827 254.453C289.987 254.714 290.08 254.996 290.109 255.297H289.094C289.043 255.036 288.932 254.834 288.761 254.692C288.59 254.549 288.372 254.478 288.104 254.478C287.723 254.478 287.416 254.655 287.183 255.007C286.95 255.354 286.825 255.886 286.808 256.602C286.944 256.369 287.149 256.176 287.422 256.022C287.695 255.869 287.999 255.792 288.335 255.792C288.664 255.792 288.974 255.872 289.264 256.031C289.554 256.19 289.788 256.415 289.964 256.705C290.146 256.995 290.237 257.336 290.237 257.728C290.237 258.087 290.149 258.419 289.972 258.727C289.802 259.034 289.557 259.281 289.239 259.469C288.926 259.656 288.562 259.75 288.147 259.75ZM288.087 258.812C288.406 258.812 288.667 258.715 288.872 258.522C289.082 258.323 289.188 258.073 289.188 257.771C289.188 257.453 289.082 257.197 288.872 257.003C288.662 256.81 288.394 256.713 288.07 256.713C287.86 256.713 287.669 256.762 287.499 256.858C287.334 256.949 287.203 257.074 287.106 257.234C287.009 257.387 286.961 257.561 286.961 257.754C286.961 258.061 287.066 258.314 287.277 258.513C287.493 258.712 287.763 258.812 288.087 258.812Z" fill="#89936D"/>
<path d="M338.107 259.648V254.922L337.126 255.152V254.316L338.567 253.677H339.241V259.648H338.107ZM340.74 259.648L342.992 254.606H340.049V253.677H344.118V254.453L341.875 259.648H340.74Z" fill="#89936D"/>
<path d="M391.602 259.648V254.922L390.621 255.152V254.316L392.063 253.677H392.737V259.648H391.602ZM396.002 259.75C395.592 259.75 395.223 259.679 394.893 259.537C394.563 259.389 394.298 259.181 394.099 258.914C393.906 258.647 393.809 258.337 393.809 257.984C393.809 257.62 393.903 257.302 394.091 257.029C394.284 256.756 394.537 256.56 394.85 256.44C394.577 256.321 394.361 256.15 394.202 255.929C394.043 255.701 393.963 255.448 393.963 255.169C393.963 254.885 394.04 254.623 394.193 254.385C394.347 254.14 394.574 253.944 394.876 253.796C395.183 253.648 395.558 253.574 396.002 253.574C396.445 253.574 396.818 253.648 397.119 253.796C397.421 253.944 397.648 254.14 397.802 254.385C397.955 254.623 398.032 254.885 398.032 255.169C398.032 255.442 397.949 255.695 397.785 255.929C397.625 256.156 397.412 256.327 397.145 256.44C397.463 256.56 397.716 256.756 397.904 257.029C398.092 257.302 398.185 257.62 398.185 257.984C398.185 258.337 398.089 258.647 397.895 258.914C397.702 259.181 397.438 259.389 397.102 259.537C396.772 259.679 396.405 259.75 396.002 259.75ZM396.002 256.116C396.297 256.116 396.531 256.039 396.701 255.886C396.872 255.732 396.957 255.536 396.957 255.297C396.957 255.036 396.872 254.831 396.701 254.683C396.536 254.535 396.303 254.461 396.002 254.461C395.695 254.461 395.459 254.535 395.294 254.683C395.129 254.831 395.046 255.036 395.046 255.297C395.046 255.542 395.129 255.741 395.294 255.894C395.464 256.042 395.7 256.116 396.002 256.116ZM396.002 258.837C396.366 258.837 396.641 258.749 396.829 258.573C397.017 258.391 397.111 258.164 397.111 257.891C397.111 257.589 397.011 257.353 396.812 257.183C396.619 257.012 396.349 256.927 396.002 256.927C395.655 256.927 395.379 257.012 395.174 257.183C394.975 257.353 394.876 257.589 394.876 257.891C394.876 258.164 394.97 258.391 395.157 258.573C395.351 258.749 395.632 258.837 396.002 258.837Z" fill="#89936D"/>
<path d="M446.098 259.648V254.922L445.117 255.152V254.316L446.559 253.677H447.232V259.648H446.098ZM450.429 259.75C450.014 259.75 449.664 259.671 449.38 259.511C449.095 259.346 448.874 259.133 448.714 258.872C448.555 258.61 448.461 258.328 448.433 258.027H449.448C449.494 258.289 449.602 258.491 449.772 258.633C449.949 258.775 450.17 258.846 450.438 258.846C450.819 258.846 451.126 258.673 451.359 258.326C451.592 257.973 451.717 257.438 451.734 256.722C451.598 256.955 451.39 257.148 451.112 257.302C450.839 257.456 450.537 257.532 450.207 257.532C449.877 257.532 449.568 257.453 449.277 257.293C448.987 257.134 448.751 256.91 448.569 256.62C448.387 256.329 448.296 255.988 448.296 255.596C448.296 255.238 448.385 254.905 448.561 254.598C448.737 254.291 448.982 254.043 449.295 253.856C449.607 253.668 449.974 253.574 450.395 253.574C450.844 253.574 451.222 253.657 451.53 253.822C451.837 253.986 452.081 254.208 452.263 254.487C452.451 254.766 452.584 255.076 452.664 255.417C452.749 255.758 452.792 256.108 452.792 256.466C452.792 257.131 452.698 257.711 452.511 258.206C452.329 258.695 452.058 259.076 451.7 259.349C451.348 259.617 450.924 259.75 450.429 259.75ZM450.463 256.611C450.674 256.611 450.864 256.565 451.035 256.475C451.205 256.378 451.339 256.253 451.436 256.099C451.532 255.94 451.581 255.764 451.581 255.57C451.581 255.263 451.473 255.01 451.257 254.811C451.046 254.612 450.779 254.513 450.455 254.513C450.136 254.513 449.872 254.612 449.661 254.811C449.451 255.004 449.346 255.252 449.346 255.553C449.346 255.872 449.451 256.128 449.661 256.321C449.872 256.514 450.139 256.611 450.463 256.611Z" fill="#89936D"/>
<path d="M499.8 259.648V258.854C500.164 258.553 500.517 258.255 500.858 257.959C501.205 257.663 501.512 257.37 501.779 257.08C502.052 256.79 502.268 256.509 502.428 256.236C502.593 255.957 502.675 255.687 502.675 255.425C502.675 255.181 502.607 254.965 502.47 254.777C502.339 254.589 502.121 254.495 501.813 254.495C501.501 254.495 501.265 254.598 501.105 254.803C500.946 255.007 500.867 255.255 500.867 255.545H499.809C499.82 255.107 499.917 254.743 500.099 254.453C500.281 254.157 500.522 253.938 500.824 253.796C501.125 253.648 501.464 253.574 501.839 253.574C502.448 253.574 502.92 253.742 503.255 254.077C503.596 254.407 503.767 254.837 503.767 255.366C503.767 255.695 503.69 256.017 503.537 256.329C503.389 256.642 503.193 256.944 502.948 257.234C502.703 257.524 502.439 257.797 502.155 258.053C501.87 258.303 501.594 258.536 501.327 258.752H503.912V259.648H499.8ZM507.225 259.75C506.674 259.75 506.202 259.622 505.809 259.366C505.417 259.105 505.112 258.744 504.896 258.283C504.686 257.817 504.581 257.276 504.581 256.662C504.581 256.054 504.686 255.516 504.896 255.05C505.112 254.584 505.417 254.222 505.809 253.967C506.202 253.705 506.674 253.574 507.225 253.574C507.777 253.574 508.249 253.705 508.641 253.967C509.034 254.222 509.335 254.584 509.545 255.05C509.762 255.516 509.87 256.054 509.87 256.662C509.87 257.276 509.762 257.817 509.545 258.283C509.335 258.744 509.034 259.105 508.641 259.366C508.249 259.622 507.777 259.75 507.225 259.75ZM507.225 258.769C507.674 258.769 508.041 258.582 508.326 258.206C508.61 257.831 508.752 257.316 508.752 256.662C508.752 256.008 508.61 255.494 508.326 255.118C508.041 254.743 507.674 254.555 507.225 254.555C506.77 254.555 506.401 254.743 506.116 255.118C505.838 255.494 505.698 256.008 505.698 256.662C505.698 257.316 505.838 257.831 506.116 258.206C506.401 258.582 506.77 258.769 507.225 258.769Z" fill="#89936D"/>
<path d="M556.296 259.648V258.854C556.66 258.553 557.012 258.255 557.354 257.959C557.701 257.663 558.008 257.37 558.275 257.08C558.548 256.79 558.764 256.509 558.923 256.236C559.088 255.957 559.171 255.687 559.171 255.425C559.171 255.181 559.102 254.965 558.966 254.777C558.835 254.589 558.616 254.495 558.309 254.495C557.996 254.495 557.76 254.598 557.601 254.803C557.442 255.007 557.362 255.255 557.362 255.545H556.304C556.316 255.107 556.412 254.743 556.594 254.453C556.776 254.157 557.018 253.938 557.32 253.796C557.621 253.648 557.959 253.574 558.335 253.574C558.943 253.574 559.415 253.742 559.751 254.077C560.092 254.407 560.263 254.837 560.263 255.366C560.263 255.695 560.186 256.017 560.032 256.329C559.884 256.642 559.688 256.944 559.444 257.234C559.199 257.524 558.935 257.797 558.65 258.053C558.366 258.303 558.09 258.536 557.823 258.752H560.408V259.648H556.296ZM561.963 259.648V254.922L560.982 255.152V254.316L562.423 253.677H563.097V259.648H561.963Z" fill="#89936D"/>
<path d="M609.791 259.648V258.854C610.155 258.553 610.508 258.255 610.849 257.959C611.196 257.663 611.503 257.37 611.771 257.08C612.044 256.79 612.26 256.509 612.419 256.236C612.584 255.957 612.666 255.687 612.666 255.425C612.666 255.181 612.598 254.965 612.462 254.777C612.331 254.589 612.112 254.495 611.805 254.495C611.492 254.495 611.256 254.598 611.097 254.803C610.937 255.007 610.858 255.255 610.858 255.545H609.8C609.811 255.107 609.908 254.743 610.09 254.453C610.272 254.157 610.514 253.938 610.815 253.796C611.117 253.648 611.455 253.574 611.83 253.574C612.439 253.574 612.911 253.742 613.246 254.077C613.588 254.407 613.758 254.837 613.758 255.366C613.758 255.695 613.681 256.017 613.528 256.329C613.38 256.642 613.184 256.944 612.939 257.234C612.695 257.524 612.43 257.797 612.146 258.053C611.862 258.303 611.586 258.536 611.318 258.752H613.903V259.648H609.791ZM614.665 259.648V258.854C615.029 258.553 615.381 258.255 615.723 257.959C616.07 257.663 616.377 257.37 616.644 257.08C616.917 256.79 617.133 256.509 617.292 256.236C617.457 255.957 617.54 255.687 617.54 255.425C617.54 255.181 617.471 254.965 617.335 254.777C617.204 254.589 616.985 254.495 616.678 254.495C616.365 254.495 616.129 254.598 615.97 254.803C615.811 255.007 615.731 255.255 615.731 255.545H614.673C614.685 255.107 614.781 254.743 614.963 254.453C615.145 254.157 615.387 253.938 615.688 253.796C615.99 253.648 616.328 253.574 616.704 253.574C617.312 253.574 617.784 253.742 618.12 254.077C618.461 254.407 618.631 254.837 618.631 255.366C618.631 255.695 618.555 256.017 618.401 256.329C618.253 256.642 618.057 256.944 617.813 257.234C617.568 257.524 617.304 257.797 617.019 258.053C616.735 258.303 616.459 258.536 616.192 258.752H618.777V259.648H614.665Z" fill="#89936D"/>
<path d="M22.5544 28.6152V23.8894L21.5734 24.1197V23.2837L23.015 22.6439H23.6889V28.6152H22.5544ZM27.5765 28.6152V27.5063H24.6335V26.6362L27.4315 22.6439H28.6684V26.5594H29.4532V27.5063H28.6684V28.6152H27.5765ZM25.8022 26.5594H27.6447V23.8467L25.8022 26.5594ZM32.7598 28.7176C32.2082 28.7176 31.7361 28.5896 31.3437 28.3337C30.9513 28.0721 30.6471 27.711 30.431 27.2504C30.2206 26.784 30.1154 26.2438 30.1154 25.6296C30.1154 25.0211 30.2206 24.4837 30.431 24.0173C30.6471 23.551 30.9513 23.1899 31.3437 22.934C31.7361 22.6724 32.2082 22.5416 32.7598 22.5416C33.3114 22.5416 33.7834 22.6724 34.1758 22.934C34.5682 23.1899 34.8697 23.551 35.0801 24.0173C35.2962 24.4837 35.4042 25.0211 35.4042 25.6296C35.4042 26.2438 35.2962 26.784 35.0801 27.2504C34.8697 27.711 34.5682 28.0721 34.1758 28.3337C33.7834 28.5896 33.3114 28.7176 32.7598 28.7176ZM32.7598 27.7366C33.2091 27.7366 33.5759 27.5489 33.8602 27.1736C34.1446 26.7983 34.2867 26.2836 34.2867 25.6296C34.2867 24.9756 34.1446 24.4609 33.8602 24.0856C33.5759 23.7102 33.2091 23.5226 32.7598 23.5226C32.3048 23.5226 31.9352 23.7102 31.6508 24.0856C31.3722 24.4609 31.2328 24.9756 31.2328 25.6296C31.2328 26.2836 31.3722 26.7983 31.6508 27.1736C31.9352 27.5489 32.3048 27.7366 32.7598 27.7366ZM36.3422 28.6152V22.4733H37.4341V26.0988L38.9355 24.3841H40.2321L38.5004 26.312L40.5136 28.6152H39.1488L37.4341 26.4912V28.6152H36.3422Z" fill="#89936D"/>
<path d="M22.5544 56.676V51.9502L21.5734 52.1805V51.3445L23.015 50.7047H23.6889V56.676H22.5544ZM24.7017 56.676V55.8827C25.0657 55.5813 25.4183 55.2827 25.7595 54.987C26.1064 54.6913 26.4135 54.3984 26.6808 54.1084C26.9538 53.8183 27.1699 53.5368 27.3291 53.2639C27.494 52.9852 27.5765 52.7151 27.5765 52.4535C27.5765 52.2089 27.5082 51.9928 27.3718 51.8051C27.241 51.6175 27.022 51.5236 26.7149 51.5236C26.4021 51.5236 26.1661 51.626 26.0069 51.8307C25.8476 52.0355 25.768 52.2829 25.768 52.5729H24.7103C24.7216 52.135 24.8183 51.771 25.0003 51.481C25.1823 51.1853 25.424 50.9663 25.7254 50.8241C26.0268 50.6763 26.3652 50.6024 26.7405 50.6024C27.349 50.6024 27.821 50.7701 28.1566 51.1057C28.4978 51.4355 28.6684 51.8649 28.6684 52.3937C28.6684 52.7236 28.5916 53.0449 28.4381 53.3577C28.2902 53.6705 28.094 53.9719 27.8495 54.2619C27.6049 54.5519 27.3405 54.8249 27.0561 55.0808C26.7718 55.3311 26.496 55.5642 26.2287 55.7803H28.8134V56.676H24.7017ZM32.1267 56.7784C31.575 56.7784 31.103 56.6504 30.7106 56.3945C30.3182 56.1329 30.014 55.7718 29.7979 55.3112C29.5874 54.8448 29.4822 54.3046 29.4822 53.6904C29.4822 53.0819 29.5874 52.5445 29.7979 52.0781C30.014 51.6118 30.3182 51.2507 30.7106 50.9948C31.103 50.7332 31.575 50.6024 32.1267 50.6024C32.6783 50.6024 33.1503 50.7332 33.5427 50.9948C33.9351 51.2507 34.2365 51.6118 34.4469 52.0781C34.6631 52.5445 34.7711 53.0819 34.7711 53.6904C34.7711 54.3046 34.6631 54.8448 34.4469 55.3112C34.2365 55.7718 33.9351 56.1329 33.5427 56.3945C33.1503 56.6504 32.6783 56.7784 32.1267 56.7784ZM32.1267 55.7974C32.5759 55.7974 32.9427 55.6097 33.2271 55.2344C33.5114 54.859 33.6536 54.3444 33.6536 53.6904C33.6536 53.0364 33.5114 52.5217 33.2271 52.1464C32.9427 51.771 32.5759 51.5834 32.1267 51.5834C31.6717 51.5834 31.3021 51.771 31.0177 52.1464C30.7391 52.5217 30.5997 53.0364 30.5997 53.6904C30.5997 54.3444 30.7391 54.859 31.0177 55.2344C31.3021 55.6097 31.6717 55.7974 32.1267 55.7974ZM35.7091 56.676V50.5341H36.801V54.1595L38.3024 52.4449H39.599L37.8673 54.3728L39.8805 56.676H38.5156L36.801 54.5519V56.676H35.7091Z" fill="#89936D"/>
<path d="M22.5544 84.7371V80.0112L21.5734 80.2415V79.4055L23.015 78.7658H23.6889V84.7371H22.5544ZM27.295 84.8394C26.7433 84.8394 26.2713 84.7115 25.8789 84.4556C25.4865 84.194 25.1823 83.8328 24.9662 83.3722C24.7558 82.9059 24.6505 82.3656 24.6505 81.7514C24.6505 81.1429 24.7558 80.6055 24.9662 80.1392C25.1823 79.6728 25.4865 79.3117 25.8789 79.0558C26.2713 78.7942 26.7433 78.6634 27.295 78.6634C27.8466 78.6634 28.3186 78.7942 28.711 79.0558C29.1034 79.3117 29.4048 79.6728 29.6153 80.1392C29.8314 80.6055 29.9394 81.1429 29.9394 81.7514C29.9394 82.3656 29.8314 82.9059 29.6153 83.3722C29.4048 83.8328 29.1034 84.194 28.711 84.4556C28.3186 84.7115 27.8466 84.8394 27.295 84.8394ZM27.295 83.8584C27.7442 83.8584 28.1111 83.6708 28.3954 83.2954C28.6798 82.9201 28.8219 82.4054 28.8219 81.7514C28.8219 81.0974 28.6798 80.5827 28.3954 80.2074C28.1111 79.8321 27.7442 79.6444 27.295 79.6444C26.84 79.6444 26.4704 79.8321 26.186 80.2074C25.9074 80.5827 25.768 81.0974 25.768 81.7514C25.768 82.4054 25.9074 82.9201 26.186 83.2954C26.4704 83.6708 26.84 83.8584 27.295 83.8584ZM33.3513 84.8394C32.7996 84.8394 32.3276 84.7115 31.9352 84.4556C31.5428 84.194 31.2386 83.8328 31.0224 83.3722C30.812 82.9059 30.7068 82.3656 30.7068 81.7514C30.7068 81.1429 30.812 80.6055 31.0224 80.1392C31.2386 79.6728 31.5428 79.3117 31.9352 79.0558C32.3276 78.7942 32.7996 78.6634 33.3513 78.6634C33.9029 78.6634 34.3749 78.7942 34.7673 79.0558C35.1597 79.3117 35.4611 79.6728 35.6715 80.1392C35.8876 80.6055 35.9957 81.1429 35.9957 81.7514C35.9957 82.3656 35.8876 82.9059 35.6715 83.3722C35.4611 83.8328 35.1597 84.194 34.7673 84.4556C34.3749 84.7115 33.9029 84.8394 33.3513 84.8394ZM33.3513 83.8584C33.8005 83.8584 34.1673 83.6708 34.4517 83.2954C34.736 82.9201 34.8782 82.4054 34.8782 81.7514C34.8782 81.0974 34.736 80.5827 34.4517 80.2074C34.1673 79.8321 33.8005 79.6444 33.3513 79.6444C32.8963 79.6444 32.5266 79.8321 32.2423 80.2074C31.9636 80.5827 31.8243 81.0974 31.8243 81.7514C31.8243 82.4054 31.9636 82.9201 32.2423 83.2954C32.5266 83.6708 32.8963 83.8584 33.3513 83.8584ZM36.9337 84.7371V78.5951H38.0256V82.2206L39.527 80.506H40.8236L39.0919 82.4338L41.1051 84.7371H39.7402L38.0256 82.613V84.7371H36.9337Z" fill="#89936D"/>
<path d="M24.0131 112.9C23.6036 112.9 23.234 112.829 22.9041 112.687C22.5743 112.539 22.3099 112.332 22.1108 112.064C21.9175 111.797 21.8208 111.487 21.8208 111.134C21.8208 110.77 21.9146 110.452 22.1023 110.179C22.2956 109.906 22.5487 109.71 22.8615 109.59C22.5885 109.471 22.3724 109.3 22.2132 109.079C22.0539 108.851 21.9743 108.598 21.9743 108.319C21.9743 108.035 22.0511 107.773 22.2046 107.535C22.3582 107.29 22.5857 107.094 22.8871 106.946C23.1942 106.798 23.5695 106.724 24.0131 106.724C24.4567 106.724 24.8292 106.798 25.1306 106.946C25.432 107.094 25.6595 107.29 25.813 107.535C25.9666 107.773 26.0433 108.035 26.0433 108.319C26.0433 108.592 25.9609 108.845 25.796 109.079C25.6367 109.306 25.4235 109.477 25.1562 109.59C25.4746 109.71 25.7277 109.906 25.9154 110.179C26.1031 110.452 26.1969 110.77 26.1969 111.134C26.1969 111.487 26.1002 111.797 25.9069 112.064C25.7135 112.332 25.4491 112.539 25.1135 112.687C24.7837 112.829 24.4169 112.9 24.0131 112.9ZM24.0131 109.266C24.3088 109.266 24.542 109.189 24.7126 109.036C24.8832 108.882 24.9685 108.686 24.9685 108.447C24.9685 108.186 24.8832 107.981 24.7126 107.833C24.5477 107.685 24.3145 107.611 24.0131 107.611C23.706 107.611 23.47 107.685 23.3051 107.833C23.1401 107.981 23.0577 108.186 23.0577 108.447C23.0577 108.692 23.1401 108.891 23.3051 109.044C23.4757 109.192 23.7117 109.266 24.0131 109.266ZM24.0131 111.987C24.3771 111.987 24.6529 111.899 24.8405 111.723C25.0282 111.541 25.1221 111.314 25.1221 111.041C25.1221 110.739 25.0225 110.503 24.8235 110.333C24.6301 110.162 24.36 110.077 24.0131 110.077C23.6662 110.077 23.3904 110.162 23.1856 110.333C22.9866 110.503 22.8871 110.739 22.8871 111.041C22.8871 111.314 22.9809 111.541 23.1686 111.723C23.3619 111.899 23.6434 111.987 24.0131 111.987ZM29.7192 112.9C29.1675 112.9 28.6955 112.772 28.3031 112.516C27.9107 112.255 27.6065 111.894 27.3903 111.433C27.1799 110.967 27.0747 110.426 27.0747 109.812C27.0747 109.204 27.1799 108.666 27.3903 108.2C27.6065 107.734 27.9107 107.372 28.3031 107.117C28.6955 106.855 29.1675 106.724 29.7192 106.724C30.2708 106.724 30.7428 106.855 31.1352 107.117C31.5276 107.372 31.829 107.734 32.0394 108.2C32.2555 108.666 32.3636 109.204 32.3636 109.812C32.3636 110.426 32.2555 110.967 32.0394 111.433C31.829 111.894 31.5276 112.255 31.1352 112.516C30.7428 112.772 30.2708 112.9 29.7192 112.9ZM29.7192 111.919C30.1684 111.919 30.5352 111.732 30.8196 111.356C31.1039 110.981 31.2461 110.466 31.2461 109.812C31.2461 109.158 31.1039 108.644 30.8196 108.268C30.5352 107.893 30.1684 107.705 29.7192 107.705C29.2642 107.705 28.8945 107.893 28.6102 108.268C28.3315 108.644 28.1922 109.158 28.1922 109.812C28.1922 110.466 28.3315 110.981 28.6102 111.356C28.8945 111.732 29.2642 111.919 29.7192 111.919ZM33.3016 112.798V106.656H34.3935V110.281L35.8949 108.567H37.1915L35.4598 110.495L37.473 112.798H36.1081L34.3935 110.674V112.798H33.3016Z" fill="#89936D"/>
<path d="M24.1496 140.961C23.7003 140.961 23.3221 140.879 23.015 140.714C22.7079 140.549 22.4606 140.327 22.2729 140.048C22.0852 139.77 21.9487 139.46 21.8634 139.118C21.7838 138.777 21.744 138.427 21.744 138.069C21.744 137.404 21.8378 136.827 22.0255 136.338C22.2132 135.843 22.4833 135.462 22.8359 135.194C23.1885 134.921 23.615 134.785 24.1155 134.785C24.5249 134.785 24.8718 134.867 25.1562 135.032C25.4462 135.192 25.6708 135.402 25.8301 135.664C25.9893 135.925 26.0831 136.207 26.1116 136.508H25.0965C25.0453 136.247 24.9344 136.045 24.7638 135.902C24.5932 135.76 24.3742 135.689 24.1069 135.689C23.7259 135.689 23.4188 135.865 23.1856 136.218C22.9525 136.565 22.8274 137.097 22.8103 137.813C22.9468 137.58 23.1515 137.387 23.4245 137.233C23.6975 137.08 24.0017 137.003 24.3373 137.003C24.6671 137.003 24.977 137.083 25.2671 137.242C25.5571 137.401 25.7903 137.626 25.9666 137.916C26.1485 138.206 26.2395 138.547 26.2395 138.939C26.2395 139.298 26.1514 139.63 25.9751 139.937C25.8045 140.244 25.5599 140.492 25.2415 140.68C24.9287 140.867 24.5647 140.961 24.1496 140.961ZM24.0899 140.023C24.4083 140.023 24.6699 139.926 24.8747 139.733C25.0851 139.534 25.1903 139.283 25.1903 138.982C25.1903 138.663 25.0851 138.408 24.8747 138.214C24.6643 138.021 24.397 137.924 24.0728 137.924C23.8624 137.924 23.6719 137.973 23.5013 138.069C23.3363 138.16 23.2055 138.285 23.1089 138.445C23.0122 138.598 22.9639 138.772 22.9639 138.965C22.9639 139.272 23.0691 139.525 23.2795 139.724C23.4956 139.923 23.7657 140.023 24.0899 140.023ZM29.7608 140.961C29.2092 140.961 28.7372 140.833 28.3448 140.577C27.9524 140.316 27.6481 139.954 27.432 139.494C27.2216 139.027 27.1164 138.487 27.1164 137.873C27.1164 137.264 27.2216 136.727 27.432 136.261C27.6481 135.794 27.9524 135.433 28.3448 135.177C28.7372 134.916 29.2092 134.785 29.7608 134.785C30.3124 134.785 30.7845 134.916 31.1769 135.177C31.5693 135.433 31.8707 135.794 32.0811 136.261C32.2972 136.727 32.4052 137.264 32.4052 137.873C32.4052 138.487 32.2972 139.027 32.0811 139.494C31.8707 139.954 31.5693 140.316 31.1769 140.577C30.7845 140.833 30.3124 140.961 29.7608 140.961ZM29.7608 139.98C30.2101 139.98 30.5769 139.792 30.8612 139.417C31.1456 139.042 31.2878 138.527 31.2878 137.873C31.2878 137.219 31.1456 136.704 30.8612 136.329C30.5769 135.954 30.2101 135.766 29.7608 135.766C29.3059 135.766 28.9362 135.954 28.6519 136.329C28.3732 136.704 28.2339 137.219 28.2339 137.873C28.2339 138.527 28.3732 139.042 28.6519 139.417C28.9362 139.792 29.3059 139.98 29.7608 139.98ZM33.3433 140.859V134.717H34.4352V138.342L35.9365 136.628H37.2331L35.5015 138.555L37.5146 140.859H36.1498L34.4352 138.735V140.859H33.3433Z" fill="#89936D"/>
<path d="M24.6358 168.92V167.811H21.6928V166.94L24.4908 162.948H25.7277V166.864H26.5125V167.811H25.7277V168.92H24.6358ZM22.8615 166.864H24.7041V164.151L22.8615 166.864ZM29.8191 169.022C29.2675 169.022 28.7955 168.894 28.4031 168.638C28.0107 168.376 27.7064 168.015 27.4903 167.555C27.2799 167.088 27.1747 166.548 27.1747 165.934C27.1747 165.325 27.2799 164.788 27.4903 164.322C27.7064 163.855 28.0107 163.494 28.4031 163.238C28.7955 162.977 29.2675 162.846 29.8191 162.846C30.3708 162.846 30.8428 162.977 31.2352 163.238C31.6276 163.494 31.929 163.855 32.1394 164.322C32.3555 164.788 32.4636 165.325 32.4636 165.934C32.4636 166.548 32.3555 167.088 32.1394 167.555C31.929 168.015 31.6276 168.376 31.2352 168.638C30.8428 168.894 30.3708 169.022 29.8191 169.022ZM29.8191 168.041C30.2684 168.041 30.6352 167.853 30.9195 167.478C31.2039 167.103 31.3461 166.588 31.3461 165.934C31.3461 165.28 31.2039 164.765 30.9195 164.39C30.6352 164.015 30.2684 163.827 29.8191 163.827C29.3642 163.827 28.9945 164.015 28.7102 164.39C28.4315 164.765 28.2922 165.28 28.2922 165.934C28.2922 166.588 28.4315 167.103 28.7102 167.478C28.9945 167.853 29.3642 168.041 29.8191 168.041ZM33.4016 168.92V162.778H34.4935V166.403L35.9948 164.688H37.2915L35.5598 166.616L37.573 168.92H36.2081L34.4935 166.795V168.92H33.4016Z" fill="#89936D"/>
<path d="M21.7611 196.98V196.187C22.125 195.886 22.4776 195.587 22.8188 195.291C23.1657 194.996 23.4728 194.703 23.7401 194.413C24.0131 194.123 24.2292 193.841 24.3884 193.568C24.5534 193.29 24.6358 193.02 24.6358 192.758C24.6358 192.513 24.5676 192.297 24.4311 192.11C24.3003 191.922 24.0813 191.828 23.7742 191.828C23.4615 191.828 23.2255 191.93 23.0662 192.135C22.907 192.34 22.8274 192.587 22.8274 192.877H21.7696C21.781 192.439 21.8776 192.075 22.0596 191.785C22.2416 191.49 22.4833 191.271 22.7847 191.129C23.0861 190.981 23.4245 190.907 23.7998 190.907C24.4083 190.907 24.8804 191.075 25.2159 191.41C25.5571 191.74 25.7277 192.169 25.7277 192.698C25.7277 193.028 25.6509 193.349 25.4974 193.662C25.3495 193.975 25.1533 194.276 24.9088 194.566C24.6643 194.856 24.3998 195.129 24.1155 195.385C23.8311 195.636 23.5553 195.869 23.288 196.085H25.8727V196.98H21.7611ZM29.186 197.083C28.6344 197.083 28.1624 196.955 27.77 196.699C27.3776 196.437 27.0733 196.076 26.8572 195.616C26.6468 195.149 26.5416 194.609 26.5416 193.995C26.5416 193.386 26.6468 192.849 26.8572 192.383C27.0733 191.916 27.3776 191.555 27.77 191.299C28.1624 191.038 28.6344 190.907 29.186 190.907C29.7376 190.907 30.2097 191.038 30.6021 191.299C30.9945 191.555 31.2959 191.916 31.5063 192.383C31.7224 192.849 31.8304 193.386 31.8304 193.995C31.8304 194.609 31.7224 195.149 31.5063 195.616C31.2959 196.076 30.9945 196.437 30.6021 196.699C30.2097 196.955 29.7376 197.083 29.186 197.083ZM29.186 196.102C29.6353 196.102 30.0021 195.914 30.2864 195.539C30.5708 195.163 30.713 194.649 30.713 193.995C30.713 193.341 30.5708 192.826 30.2864 192.451C30.0021 192.075 29.6353 191.888 29.186 191.888C28.731 191.888 28.3614 192.075 28.077 192.451C27.7984 192.826 27.6591 193.341 27.6591 193.995C27.6591 194.649 27.7984 195.163 28.077 195.539C28.3614 195.914 28.731 196.102 29.186 196.102ZM32.7685 196.98V190.839H33.8603V194.464L35.3617 192.749H36.6583L34.9267 194.677L36.9398 196.98H35.575L33.8603 194.856V196.98H32.7685Z" fill="#89936D"/>
<path d="M24.3543 225.144C23.8027 225.144 23.3307 225.016 22.9383 224.76C22.5459 224.498 22.2416 224.137 22.0255 223.676C21.8151 223.21 21.7099 222.67 21.7099 222.056C21.7099 221.447 21.8151 220.91 22.0255 220.443C22.2416 219.977 22.5459 219.616 22.9383 219.36C23.3307 219.098 23.8027 218.968 24.3543 218.968C24.9059 218.968 25.378 219.098 25.7704 219.36C26.1628 219.616 26.4642 219.977 26.6746 220.443C26.8907 220.91 26.9987 221.447 26.9987 222.056C26.9987 222.67 26.8907 223.21 26.6746 223.676C26.4642 224.137 26.1628 224.498 25.7704 224.76C25.378 225.016 24.9059 225.144 24.3543 225.144ZM24.3543 224.163C24.8036 224.163 25.1704 223.975 25.4547 223.6C25.7391 223.224 25.8813 222.71 25.8813 222.056C25.8813 221.402 25.7391 220.887 25.4547 220.512C25.1704 220.136 24.8036 219.949 24.3543 219.949C23.8994 219.949 23.5297 220.136 23.2454 220.512C22.9667 220.887 22.8274 221.402 22.8274 222.056C22.8274 222.71 22.9667 223.224 23.2454 223.6C23.5297 223.975 23.8994 224.163 24.3543 224.163ZM27.9368 225.041V218.899H29.0287V222.525L30.53 220.81H31.8266L30.095 222.738L32.1081 225.041H30.7433L29.0287 222.917V225.041H27.9368Z" fill="#89936D"/>
<line x1="51.3603" y1="21.3262" x2="51.3603" y2="240.985" stroke="#87936D" stroke-opacity="0.5" stroke-width="0.355435"/>
<line x1="51.8935" y1="240.807" x2="620.589" y2="240.807" stroke="#87936D" stroke-opacity="0.5" stroke-width="0.355435"/>
<circle cx="393.111" cy="113.028" r="7.1087" fill="#9EC335"/>
<circle cx="393.111" cy="113.028" r="2.84348" fill="#0D0D0D"/>
<g filter="url(#filter1_b_1_1578)">
<path d="M336.952 80.3282C336.952 79.1504 337.907 78.1956 339.085 78.1956H391.689C392.867 78.1956 393.822 79.1504 393.822 80.3282V102.469C393.822 104.054 392.153 105.085 390.735 104.376L388.585 103.301C388.289 103.153 387.962 103.076 387.631 103.076H339.085C337.907 103.076 336.952 102.121 336.952 100.943V80.3282Z" fill="white" fill-opacity="0.8"/>
</g>
<path d="M344.891 96.8899V96.233C344.339 96.1705 343.89 95.9771 343.543 95.6529C343.196 95.3288 343.017 94.8937 343.006 94.3478H344.157C344.169 94.5753 344.237 94.7743 344.362 94.9449C344.493 95.1155 344.669 95.2321 344.891 95.2947V93.4947C344.84 93.4777 344.786 93.4606 344.729 93.4436C344.678 93.4265 344.624 93.4094 344.567 93.3924C344.106 93.2331 343.754 93.0284 343.509 92.7782C343.27 92.528 343.151 92.1953 343.151 91.7801C343.145 91.291 343.304 90.8986 343.629 90.6029C343.953 90.3015 344.374 90.1281 344.891 90.0826V89.3916H345.463V90.0911C345.974 90.1423 346.387 90.3214 346.7 90.6285C347.018 90.9299 347.186 91.3195 347.203 91.7972H346.034C346.028 91.6323 345.974 91.4816 345.872 91.3451C345.775 91.2029 345.639 91.1034 345.463 91.0465V92.6332C345.508 92.6502 345.554 92.6673 345.599 92.6843C345.645 92.6957 345.69 92.7099 345.736 92.727C346.031 92.8294 346.301 92.9488 346.546 93.0853C346.791 93.2218 346.987 93.4037 347.135 93.6312C347.282 93.853 347.356 94.1402 347.356 94.4928C347.356 94.7885 347.282 95.0643 347.135 95.3203C346.992 95.5762 346.779 95.7894 346.495 95.96C346.216 96.125 345.872 96.2188 345.463 96.2415V96.8899H344.891ZM344.294 91.7033C344.294 91.8853 344.348 92.0332 344.456 92.1469C344.564 92.255 344.709 92.3488 344.891 92.4284V91.0124C344.715 91.0465 344.57 91.1233 344.456 91.2427C344.348 91.3621 344.294 91.5157 344.294 91.7033ZM346.196 94.5696C346.196 94.3421 346.128 94.163 345.991 94.0322C345.855 93.9014 345.679 93.7905 345.463 93.6995V95.3203C345.69 95.2861 345.869 95.2037 346 95.0729C346.131 94.9421 346.196 94.7743 346.196 94.5696ZM350.683 96.1477L352.935 91.1062H349.992V90.1764H354.061V90.9527L351.817 96.1477H350.683ZM356.931 96.2501C356.521 96.2501 356.151 96.179 355.822 96.0368C355.492 95.8889 355.227 95.6814 355.028 95.4141C354.835 95.1468 354.738 94.8369 354.738 94.4843C354.738 94.1203 354.832 93.8018 355.02 93.5289C355.213 93.2559 355.466 93.0597 355.779 92.9403C355.506 92.8208 355.29 92.6502 355.131 92.4284C354.971 92.201 354.892 91.9479 354.892 91.6692C354.892 91.3849 354.969 91.1233 355.122 90.8844C355.276 90.6399 355.503 90.4437 355.804 90.2958C356.112 90.148 356.487 90.074 356.931 90.074C357.374 90.074 357.747 90.148 358.048 90.2958C358.349 90.4437 358.577 90.6399 358.73 90.8844C358.884 91.1233 358.961 91.3849 358.961 91.6692C358.961 91.9422 358.878 92.1953 358.713 92.4284C358.554 92.6559 358.341 92.8265 358.074 92.9403C358.392 93.0597 358.645 93.2559 358.833 93.5289C359.02 93.8018 359.114 94.1203 359.114 94.4843C359.114 94.8369 359.018 95.1468 358.824 95.4141C358.631 95.6814 358.366 95.8889 358.031 96.0368C357.701 96.179 357.334 96.2501 356.931 96.2501ZM356.931 92.6161C357.226 92.6161 357.459 92.5393 357.63 92.3858C357.801 92.2322 357.886 92.036 357.886 91.7972C357.886 91.5356 357.801 91.3309 357.63 91.183C357.465 91.0351 357.232 90.9612 356.931 90.9612C356.623 90.9612 356.387 91.0351 356.222 91.183C356.058 91.3309 355.975 91.5356 355.975 91.7972C355.975 92.0417 356.058 92.2408 356.222 92.3943C356.393 92.5422 356.629 92.6161 356.931 92.6161ZM356.931 95.3373C357.294 95.3373 357.57 95.2492 357.758 95.0729C357.946 94.8909 358.039 94.6634 358.039 94.3904C358.039 94.089 357.94 93.853 357.741 93.6824C357.548 93.5118 357.277 93.4265 356.931 93.4265C356.584 93.4265 356.308 93.5118 356.103 93.6824C355.904 93.853 355.804 94.089 355.804 94.3904C355.804 94.6634 355.898 94.8909 356.086 95.0729C356.279 95.2492 356.561 95.3373 356.931 95.3373ZM359.728 97.1372L360.214 95.0132H361.272L360.444 97.1372H359.728ZM364.304 96.2501C363.866 96.2501 363.488 96.1733 363.169 96.0197C362.856 95.8662 362.609 95.6558 362.427 95.3885C362.251 95.1155 362.148 94.8084 362.12 94.4672H363.186C363.238 94.7117 363.363 94.9165 363.562 95.0814C363.761 95.2406 364.008 95.3203 364.304 95.3203C364.622 95.3203 364.881 95.2037 365.08 94.9705C365.285 94.7373 365.387 94.4473 365.387 94.1004C365.387 93.7421 365.285 93.4578 365.08 93.2474C364.881 93.0369 364.628 92.9317 364.321 92.9317C364.065 92.9317 363.843 92.9943 363.655 93.1194C363.468 93.2445 363.334 93.4009 363.255 93.5886H362.205L362.717 90.1764H366.027V91.1318H363.536L363.263 92.5137C363.388 92.3773 363.559 92.2664 363.775 92.1811C363.991 92.0901 364.233 92.0446 364.5 92.0446C364.927 92.0446 365.282 92.1412 365.566 92.3346C365.851 92.5223 366.067 92.7725 366.215 93.0853C366.362 93.3924 366.436 93.7279 366.436 94.0919C366.436 94.507 366.345 94.8767 366.163 95.2008C365.987 95.525 365.737 95.7809 365.413 95.9686C365.094 96.1562 364.725 96.2501 364.304 96.2501ZM369.696 96.2501C369.247 96.2501 368.869 96.1676 368.561 96.0027C368.254 95.8378 368.007 95.616 367.819 95.3373C367.632 95.0587 367.495 94.7487 367.41 94.4075C367.33 94.0663 367.29 93.7165 367.29 93.3583C367.29 92.6929 367.384 92.1157 367.572 91.6266C367.76 91.1318 368.03 90.7508 368.382 90.4835C368.735 90.2105 369.161 90.074 369.662 90.074C370.071 90.074 370.418 90.1565 370.703 90.3214C370.993 90.4807 371.217 90.6911 371.377 90.9527C371.536 91.2143 371.63 91.4958 371.658 91.7972H370.643C370.592 91.5356 370.481 91.3337 370.31 91.1915C370.14 91.0493 369.921 90.9783 369.653 90.9783C369.272 90.9783 368.965 91.1546 368.732 91.5071C368.499 91.8541 368.374 92.3858 368.357 93.1023C368.493 92.8692 368.698 92.6758 368.971 92.5223C369.244 92.3687 369.548 92.2919 369.884 92.2919C370.214 92.2919 370.523 92.3716 370.814 92.5308C371.104 92.69 371.337 92.9147 371.513 93.2047C371.695 93.4947 371.786 93.836 371.786 94.2284C371.786 94.5866 371.698 94.9193 371.522 95.2264C371.351 95.5335 371.106 95.7809 370.788 95.9686C370.475 96.1562 370.111 96.2501 369.696 96.2501ZM369.636 95.3117C369.955 95.3117 370.216 95.215 370.421 95.0217C370.632 94.8226 370.737 94.5724 370.737 94.271C370.737 93.9525 370.632 93.6966 370.421 93.5033C370.211 93.3099 369.943 93.2132 369.619 93.2132C369.409 93.2132 369.218 93.2616 369.048 93.3583C368.883 93.4492 368.752 93.5744 368.655 93.7336C368.559 93.8871 368.51 94.0606 368.51 94.2539C368.51 94.561 368.616 94.8141 368.826 95.0132C369.042 95.2122 369.312 95.3117 369.636 95.3117ZM375.307 96.2501C374.756 96.2501 374.284 96.1221 373.891 95.8662C373.499 95.6046 373.195 95.2435 372.978 94.7828C372.768 94.3165 372.663 93.7762 372.663 93.1621C372.663 92.5535 372.768 92.0161 372.978 91.5498C373.195 91.0835 373.499 90.7223 373.891 90.4664C374.284 90.2048 374.756 90.074 375.307 90.074C375.859 90.074 376.331 90.2048 376.723 90.4664C377.116 90.7223 377.417 91.0835 377.628 91.5498C377.844 92.0161 377.952 92.5535 377.952 93.1621C377.952 93.7762 377.844 94.3165 377.628 94.7828C377.417 95.2435 377.116 95.6046 376.723 95.8662C376.331 96.1221 375.859 96.2501 375.307 96.2501ZM375.307 95.2691C375.757 95.2691 376.123 95.0814 376.408 94.7061C376.692 94.3307 376.834 93.8161 376.834 93.1621C376.834 92.5081 376.692 91.9934 376.408 91.618C376.123 91.2427 375.757 91.055 375.307 91.055C374.852 91.055 374.483 91.2427 374.198 91.618C373.92 91.9934 373.78 92.5081 373.78 93.1621C373.78 93.8161 373.92 94.3307 374.198 94.7061C374.483 95.0814 374.852 95.2691 375.307 95.2691Z" fill="#0D0D0D"/>
<path opacity="0.8" d="M343.151 85.75V83.7809L342.742 83.8769V83.5285L343.343 83.262H343.624V85.75H343.151ZM344.984 85.7927C344.813 85.7927 344.659 85.763 344.522 85.7038C344.384 85.6422 344.274 85.5557 344.191 85.4443C344.111 85.333 344.07 85.2038 344.07 85.0569C344.07 84.9053 344.11 84.7726 344.188 84.6588C344.268 84.5451 344.374 84.4633 344.504 84.4136C344.39 84.3638 344.3 84.2927 344.234 84.2003C344.168 84.1055 344.134 84.0001 344.134 83.884C344.134 83.7655 344.166 83.6565 344.23 83.557C344.294 83.4551 344.389 83.3733 344.515 83.3117C344.643 83.2501 344.799 83.2193 344.984 83.2193C345.169 83.2193 345.324 83.2501 345.45 83.3117C345.575 83.3733 345.67 83.4551 345.734 83.557C345.798 83.6565 345.83 83.7655 345.83 83.884C345.83 83.9977 345.796 84.1032 345.727 84.2003C345.66 84.2951 345.572 84.3662 345.46 84.4136C345.593 84.4633 345.698 84.5451 345.777 84.6588C345.855 84.7726 345.894 84.9053 345.894 85.0569C345.894 85.2038 345.854 85.333 345.773 85.4443C345.692 85.5557 345.582 85.6422 345.442 85.7038C345.305 85.763 345.152 85.7927 344.984 85.7927ZM344.984 84.2785C345.107 84.2785 345.204 84.2465 345.275 84.1825C345.346 84.1186 345.382 84.0368 345.382 83.9373C345.382 83.8283 345.346 83.743 345.275 83.6814C345.207 83.6198 345.11 83.589 344.984 83.589C344.856 83.589 344.758 83.6198 344.689 83.6814C344.62 83.743 344.586 83.8283 344.586 83.9373C344.586 84.0392 344.62 84.1221 344.689 84.1861C344.76 84.2477 344.858 84.2785 344.984 84.2785ZM344.984 85.4123C345.136 85.4123 345.251 85.3756 345.329 85.3022C345.407 85.2263 345.446 85.1315 345.446 85.0178C345.446 84.8922 345.405 84.7939 345.322 84.7228C345.241 84.6517 345.128 84.6162 344.984 84.6162C344.839 84.6162 344.724 84.6517 344.639 84.7228C344.556 84.7939 344.515 84.8922 344.515 85.0178C344.515 85.1315 344.554 85.2263 344.632 85.3022C344.713 85.3756 344.83 85.4123 344.984 85.4123ZM347.839 85.7927C347.597 85.7927 347.403 85.7251 347.256 85.5901C347.111 85.4526 347.039 85.2583 347.039 85.0071H347.494C347.496 85.1233 347.524 85.2157 347.576 85.2844C347.628 85.3531 347.712 85.3875 347.828 85.3875C347.937 85.3875 348.016 85.3555 348.066 85.2915C348.116 85.2251 348.141 85.1387 348.141 85.032V83.262H348.596V85.032C348.596 85.2761 348.527 85.4645 348.39 85.5972C348.255 85.7275 348.071 85.7927 347.839 85.7927ZM349.73 85.7927C349.51 85.7927 349.339 85.7239 349.219 85.5865C349.1 85.4491 349.041 85.2477 349.041 84.9823V83.987H349.492V84.9396C349.492 85.0913 349.523 85.2074 349.585 85.2879C349.646 85.3685 349.743 85.4088 349.876 85.4088C350.002 85.4088 350.105 85.3638 350.185 85.2737C350.268 85.1837 350.31 85.0581 350.31 84.897V83.987H350.765V85.75H350.363L350.328 85.4514C350.273 85.5557 350.194 85.6386 350.089 85.7002C349.988 85.7618 349.868 85.7927 349.73 85.7927ZM351.232 85.75V83.987H351.633L351.669 84.2856C351.723 84.1813 351.802 84.0984 351.904 84.0368C352.008 83.9752 352.13 83.9444 352.27 83.9444C352.488 83.9444 352.657 84.0131 352.778 84.1505C352.899 84.288 352.959 84.4894 352.959 84.7548V85.75H352.504V84.7974C352.504 84.6458 352.473 84.5297 352.412 84.4491C352.35 84.3685 352.254 84.3283 352.124 84.3283C351.996 84.3283 351.891 84.3733 351.808 84.4633C351.727 84.5534 351.687 84.679 351.687 84.8401V85.75H351.232ZM354.251 85.7927C354.073 85.7927 353.916 85.7547 353.778 85.6789C353.641 85.6031 353.533 85.4965 353.455 85.359C353.376 85.2216 353.337 85.0628 353.337 84.8827C353.337 84.7003 353.375 84.538 353.451 84.3958C353.529 84.2536 353.636 84.1434 353.771 84.0652C353.908 83.9847 354.07 83.9444 354.254 83.9444C354.427 83.9444 354.58 83.9823 354.713 84.0581C354.846 84.134 354.949 84.2382 355.022 84.3709C355.098 84.5012 355.136 84.647 355.136 84.8081C355.136 84.8342 355.135 84.8614 355.132 84.8898C355.132 84.9183 355.131 84.9479 355.129 84.9787H353.789C353.798 85.1161 353.846 85.224 353.931 85.3022C354.019 85.3803 354.124 85.4194 354.247 85.4194C354.34 85.4194 354.417 85.3993 354.478 85.359C354.542 85.3164 354.59 85.2619 354.621 85.1955H355.083C355.049 85.3069 354.994 85.4088 354.916 85.5012C354.84 85.5912 354.745 85.6623 354.631 85.7145C354.52 85.7666 354.393 85.7927 354.251 85.7927ZM354.254 84.314C354.143 84.314 354.045 84.346 353.959 84.41C353.874 84.4716 353.82 84.5664 353.796 84.6944H354.674C354.667 84.5783 354.624 84.4858 354.546 84.4171C354.468 84.3484 354.371 84.314 354.254 84.314ZM356.316 85.75V85.4194C356.467 85.2939 356.614 85.1695 356.756 85.0462C356.901 84.923 357.029 84.801 357.14 84.6801C357.254 84.5593 357.344 84.442 357.41 84.3283C357.479 84.2122 357.514 84.0996 357.514 83.9906C357.514 83.8887 357.485 83.7987 357.428 83.7205C357.374 83.6423 357.283 83.6032 357.155 83.6032C357.024 83.6032 356.926 83.6458 356.86 83.7311C356.793 83.8164 356.76 83.9195 356.76 84.0404H356.319C356.324 83.8579 356.364 83.7063 356.44 83.5854C356.516 83.4622 356.617 83.371 356.742 83.3117C356.868 83.2501 357.009 83.2193 357.165 83.2193C357.419 83.2193 357.615 83.2892 357.755 83.429C357.897 83.5664 357.968 83.7453 357.968 83.9657C357.968 84.1032 357.937 84.237 357.873 84.3674C357.811 84.4977 357.729 84.6233 357.627 84.7441C357.525 84.865 357.415 84.9787 357.297 85.0853C357.178 85.1896 357.063 85.2868 356.952 85.3768H358.029V85.75H356.316ZM359.409 85.7927C359.18 85.7927 358.983 85.7393 358.819 85.6327C358.656 85.5237 358.529 85.3732 358.439 85.1813C358.351 84.987 358.308 84.7619 358.308 84.506C358.308 84.2524 358.351 84.0285 358.439 83.8342C358.529 83.6399 358.656 83.4894 358.819 83.3828C358.983 83.2738 359.18 83.2193 359.409 83.2193C359.639 83.2193 359.836 83.2738 359.999 83.3828C360.163 83.4894 360.289 83.6399 360.376 83.8342C360.466 84.0285 360.511 84.2524 360.511 84.506C360.511 84.7619 360.466 84.987 360.376 85.1813C360.289 85.3732 360.163 85.5237 359.999 85.6327C359.836 85.7393 359.639 85.7927 359.409 85.7927ZM359.409 85.3839C359.597 85.3839 359.749 85.3057 359.868 85.1493C359.986 84.9929 360.046 84.7785 360.046 84.506C360.046 84.2335 359.986 84.019 359.868 83.8626C359.749 83.7063 359.597 83.6281 359.409 83.6281C359.22 83.6281 359.066 83.7063 358.947 83.8626C358.831 84.019 358.773 84.2335 358.773 84.506C358.773 84.7785 358.831 84.9929 358.947 85.1493C359.066 85.3057 359.22 85.3839 359.409 85.3839ZM360.835 85.75V85.4194C360.987 85.2939 361.134 85.1695 361.276 85.0462C361.42 84.923 361.548 84.801 361.66 84.6801C361.773 84.5593 361.863 84.442 361.93 84.3283C361.998 84.2122 362.033 84.0996 362.033 83.9906C362.033 83.8887 362.004 83.7987 361.948 83.7205C361.893 83.6423 361.802 83.6032 361.674 83.6032C361.544 83.6032 361.445 83.6458 361.379 83.7311C361.312 83.8164 361.279 83.9195 361.279 84.0404H360.839C360.843 83.8579 360.884 83.7063 360.959 83.5854C361.035 83.4622 361.136 83.371 361.262 83.3117C361.387 83.2501 361.528 83.2193 361.685 83.2193C361.938 83.2193 362.135 83.2892 362.275 83.429C362.417 83.5664 362.488 83.7453 362.488 83.9657C362.488 84.1032 362.456 84.237 362.392 84.3674C362.33 84.4977 362.248 84.6233 362.147 84.7441C362.045 84.865 361.934 84.9787 361.816 85.0853C361.698 85.1896 361.583 85.2868 361.471 85.3768H362.548V85.75H360.835ZM362.866 85.75V85.4194C363.017 85.2939 363.164 85.1695 363.306 85.0462C363.451 84.923 363.579 84.801 363.69 84.6801C363.804 84.5593 363.894 84.442 363.96 84.3283C364.029 84.2122 364.063 84.0996 364.063 83.9906C364.063 83.8887 364.035 83.7987 363.978 83.7205C363.924 83.6423 363.832 83.6032 363.704 83.6032C363.574 83.6032 363.476 83.6458 363.409 83.7311C363.343 83.8164 363.31 83.9195 363.31 84.0404H362.869C362.874 83.8579 362.914 83.7063 362.99 83.5854C363.066 83.4622 363.167 83.371 363.292 83.3117C363.418 83.2501 363.559 83.2193 363.715 83.2193C363.969 83.2193 364.165 83.2892 364.305 83.429C364.447 83.5664 364.518 83.7453 364.518 83.9657C364.518 84.1032 364.486 84.237 364.422 84.3674C364.361 84.4977 364.279 84.6233 364.177 84.7441C364.075 84.865 363.965 84.9787 363.847 85.0853C363.728 85.1896 363.613 85.2868 363.502 85.3768H364.579V85.75H362.866Z" fill="#0D0D0D"/>
<rect x="420.835" y="14.2173" width="101.654" height="22.7478" rx="4.26522" fill="#0D0D0D"/>
<rect x="421.013" y="14.395" width="101.299" height="22.3924" rx="4.0875" stroke="#87936D" stroke-opacity="0.15" stroke-width="0.355435"/>
<path d="M437.082 27.9043V22.5216H435.3V21.933H439.582V22.5216H437.799V27.9043H437.082ZM441.576 28.0067C441.178 28.0067 440.819 27.9157 440.501 27.7337C440.182 27.5517 439.929 27.2958 439.742 26.9659C439.56 26.6304 439.469 26.238 439.469 25.7887C439.469 25.3395 439.562 24.9499 439.75 24.6201C439.938 24.2845 440.191 24.0258 440.509 23.8438C440.833 23.6618 441.195 23.5708 441.593 23.5708C441.991 23.5708 442.349 23.6618 442.668 23.8438C442.986 24.0258 443.236 24.2845 443.418 24.6201C443.606 24.9499 443.7 25.3395 443.7 25.7887C443.7 26.238 443.606 26.6304 443.418 26.9659C443.231 27.2958 442.975 27.5517 442.65 27.7337C442.332 27.9157 441.974 28.0067 441.576 28.0067ZM441.576 27.3925C441.82 27.3925 442.048 27.3328 442.258 27.2133C442.468 27.0939 442.639 26.9148 442.77 26.6759C442.901 26.4371 442.966 26.1413 442.966 25.7887C442.966 25.4362 442.901 25.1404 442.77 24.9016C442.645 24.6627 442.477 24.4836 442.267 24.3642C442.056 24.2447 441.832 24.185 441.593 24.185C441.348 24.185 441.121 24.2447 440.91 24.3642C440.7 24.4836 440.529 24.6627 440.398 24.9016C440.268 25.1404 440.202 25.4362 440.202 25.7887C440.202 26.1413 440.268 26.4371 440.398 26.6759C440.529 26.9148 440.697 27.0939 440.902 27.2133C441.112 27.3328 441.337 27.3925 441.576 27.3925ZM446.201 27.9043C445.815 27.9043 445.51 27.8105 445.289 27.6228C445.067 27.4351 444.956 27.0967 444.956 26.6077V24.2789H444.222V23.6732H444.956L445.05 22.6581H445.672V23.6732H446.918V24.2789H445.672V26.6077C445.672 26.875 445.727 27.0569 445.835 27.1536C445.943 27.2446 446.133 27.2901 446.406 27.2901H446.85V27.9043H446.201ZM449.236 28.0067C448.883 28.0067 448.59 27.9469 448.357 27.8275C448.124 27.7081 447.951 27.5489 447.837 27.3498C447.723 27.1508 447.666 26.9347 447.666 26.7015C447.666 26.2693 447.831 25.9366 448.161 25.7034C448.491 25.4703 448.94 25.3537 449.509 25.3537H450.652V25.3025C450.652 24.9329 450.555 24.6542 450.362 24.4665C450.168 24.2732 449.91 24.1765 449.586 24.1765C449.307 24.1765 449.065 24.2476 448.86 24.3898C448.661 24.5262 448.536 24.7281 448.485 24.9954H447.752C447.78 24.6883 447.882 24.4296 448.059 24.2191C448.241 24.0087 448.465 23.8495 448.733 23.7414C449 23.6277 449.284 23.5708 449.586 23.5708C450.177 23.5708 450.621 23.7301 450.916 24.0485C451.218 24.3613 451.368 24.7793 451.368 25.3025V27.9043H450.729L450.686 27.1451C450.567 27.3839 450.39 27.5887 450.157 27.7593C449.93 27.9242 449.623 28.0067 449.236 28.0067ZM449.347 27.401C449.62 27.401 449.853 27.3299 450.046 27.1877C450.245 27.0456 450.396 26.8607 450.498 26.6333C450.601 26.4058 450.652 26.1669 450.652 25.9167V25.9082H449.568C449.148 25.9082 448.849 25.9821 448.673 26.13C448.502 26.2721 448.417 26.4513 448.417 26.6674C448.417 26.8892 448.496 27.0683 448.656 27.2048C448.821 27.3356 449.051 27.401 449.347 27.401ZM452.443 27.9043V21.7624H453.16V27.9043H452.443ZM456.635 27.9043V21.933H460.328V22.5216H457.351V24.603H460.072V25.1831H457.351V27.3157H460.328V27.9043H456.635ZM462.815 28.0067C462.462 28.0067 462.169 27.9469 461.936 27.8275C461.703 27.7081 461.529 27.5489 461.416 27.3498C461.302 27.1508 461.245 26.9347 461.245 26.7015C461.245 26.2693 461.41 25.9366 461.74 25.7034C462.07 25.4703 462.519 25.3537 463.087 25.3537H464.231V25.3025C464.231 24.9329 464.134 24.6542 463.941 24.4665C463.747 24.2732 463.488 24.1765 463.164 24.1765C462.886 24.1765 462.644 24.2476 462.439 24.3898C462.24 24.5262 462.115 24.7281 462.064 24.9954H461.33C461.359 24.6883 461.461 24.4296 461.637 24.2191C461.819 24.0087 462.044 23.8495 462.311 23.7414C462.579 23.6277 462.863 23.5708 463.164 23.5708C463.756 23.5708 464.199 23.7301 464.495 24.0485C464.796 24.3613 464.947 24.7793 464.947 25.3025V27.9043H464.307L464.265 27.1451C464.145 27.3839 463.969 27.5887 463.736 27.7593C463.508 27.9242 463.201 28.0067 462.815 28.0067ZM462.925 27.401C463.198 27.401 463.432 27.3299 463.625 27.1877C463.824 27.0456 463.975 26.8607 464.077 26.6333C464.179 26.4058 464.231 26.1669 464.231 25.9167V25.9082H463.147C462.726 25.9082 462.428 25.9821 462.252 26.13C462.081 26.2721 461.996 26.4513 461.996 26.6674C461.996 26.8892 462.075 27.0683 462.234 27.2048C462.399 27.3356 462.63 27.401 462.925 27.401ZM466.022 27.9043V23.6732H466.67L466.73 24.4836C466.861 24.2049 467.06 23.9831 467.327 23.8182C467.595 23.6533 467.924 23.5708 468.317 23.5708V24.3215H468.121C467.87 24.3215 467.64 24.367 467.43 24.458C467.219 24.5433 467.051 24.6912 466.926 24.9016C466.801 25.112 466.739 25.402 466.739 25.7717V27.9043H466.022ZM469.121 27.9043V23.6732H469.769L469.812 24.4324C469.948 24.1651 470.145 23.9547 470.401 23.8012C470.657 23.6476 470.947 23.5708 471.271 23.5708C471.771 23.5708 472.169 23.7244 472.465 24.0315C472.766 24.3329 472.917 24.7992 472.917 25.4305V27.9043H472.201V25.5072C472.201 24.6258 471.837 24.185 471.109 24.185C470.745 24.185 470.44 24.3187 470.196 24.586C469.957 24.8476 469.838 25.2229 469.838 25.712V27.9043H469.121ZM474.438 22.7349C474.296 22.7349 474.176 22.6894 474.079 22.5984C473.989 22.5017 473.943 22.3823 473.943 22.2401C473.943 22.1036 473.989 21.9899 474.079 21.8989C474.176 21.8079 474.296 21.7624 474.438 21.7624C474.574 21.7624 474.691 21.8079 474.788 21.8989C474.884 21.9899 474.933 22.1036 474.933 22.2401C474.933 22.3823 474.884 22.5017 474.788 22.5984C474.691 22.6894 474.574 22.7349 474.438 22.7349ZM474.079 27.9043V23.6732H474.796V27.9043H474.079ZM476.044 27.9043V23.6732H476.692L476.735 24.4324C476.871 24.1651 477.067 23.9547 477.323 23.8012C477.579 23.6476 477.869 23.5708 478.193 23.5708C478.694 23.5708 479.092 23.7244 479.388 24.0315C479.689 24.3329 479.84 24.7992 479.84 25.4305V27.9043H479.123V25.5072C479.123 24.6258 478.759 24.185 478.031 24.185C477.667 24.185 477.363 24.3187 477.119 24.586C476.88 24.8476 476.76 25.2229 476.76 25.712V27.9043H476.044ZM482.597 26.5735C482.358 26.5735 482.14 26.5423 481.94 26.4797L481.514 26.8806C481.577 26.9261 481.653 26.9659 481.744 27.0001C481.841 27.0285 481.977 27.0569 482.154 27.0854C482.33 27.1081 482.577 27.1337 482.896 27.1621C483.465 27.202 483.871 27.3328 484.116 27.5545C484.36 27.7763 484.483 28.0664 484.483 28.4247C484.483 28.6692 484.414 28.9024 484.278 29.1241C484.147 29.3459 483.942 29.5279 483.664 29.6701C483.391 29.8123 483.038 29.8834 482.606 29.8834C482.225 29.8834 481.886 29.8322 481.591 29.7298C481.295 29.6331 481.065 29.4824 480.9 29.2777C480.735 29.0787 480.652 28.8256 480.652 28.5185C480.652 28.3593 480.695 28.1858 480.78 27.9981C480.866 27.8161 481.025 27.6427 481.258 27.4778C481.133 27.4266 481.025 27.3726 480.934 27.3157C480.849 27.2531 480.769 27.1849 480.695 27.111V26.9148L481.42 26.1982C481.085 25.9139 480.917 25.5385 480.917 25.0722C480.917 24.7935 480.982 24.5405 481.113 24.313C481.244 24.0855 481.434 23.9064 481.685 23.7756C481.935 23.6391 482.239 23.5708 482.597 23.5708C482.842 23.5708 483.064 23.605 483.263 23.6732H484.824V24.2106L484.03 24.2447C484.195 24.4836 484.278 24.7594 484.278 25.0722C484.278 25.3509 484.21 25.6039 484.073 25.8314C483.942 26.0589 483.752 26.2409 483.502 26.3773C483.257 26.5081 482.956 26.5735 482.597 26.5735ZM482.597 25.9849C482.899 25.9849 483.138 25.9082 483.314 25.7546C483.496 25.5954 483.587 25.3679 483.587 25.0722C483.587 24.7822 483.496 24.5604 483.314 24.4068C483.138 24.2476 482.899 24.168 482.597 24.168C482.29 24.168 482.046 24.2476 481.864 24.4068C481.687 24.5604 481.599 24.7822 481.599 25.0722C481.599 25.3679 481.687 25.5954 481.864 25.7546C482.046 25.9082 482.29 25.9849 482.597 25.9849ZM481.352 28.4502C481.352 28.7346 481.471 28.945 481.71 29.0815C481.949 29.2237 482.248 29.2948 482.606 29.2948C482.958 29.2948 483.24 29.218 483.45 29.0644C483.666 28.9109 483.775 28.7062 483.775 28.4502C483.775 28.2683 483.701 28.109 483.553 27.9725C483.405 27.8417 483.132 27.765 482.734 27.7422C482.421 27.7195 482.151 27.691 481.923 27.6569C481.69 27.782 481.537 27.9157 481.463 28.0578C481.389 28.2057 481.352 28.3365 481.352 28.4502Z" fill="#89936D"/>
<path d="M501.402 24.3381L503.535 26.4707L505.668 24.3381" stroke="#89936D" stroke-width="1.0663" stroke-linecap="round" stroke-linejoin="round"/>
<rect x="536.706" y="14.2173" width="83.1717" height="22.7478" rx="4.26522" fill="#0D0D0D"/>
<rect x="536.884" y="14.395" width="82.8163" height="22.3924" rx="4.0875" stroke="#87936D" stroke-opacity="0.15" stroke-width="0.355435"/>
<path d="M551.555 27.9043V21.933H552.391L554.541 26.0958L556.673 21.933H557.518V27.9043H556.801V23.2126L554.805 27.0513H554.268L552.272 23.2211V27.9043H551.555ZM560.663 28.0067C560.265 28.0067 559.907 27.9157 559.588 27.7337C559.27 27.5517 559.017 27.2958 558.829 26.9659C558.647 26.6304 558.556 26.238 558.556 25.7887C558.556 25.3395 558.65 24.9499 558.837 24.6201C559.025 24.2845 559.278 24.0258 559.597 23.8438C559.921 23.6618 560.282 23.5708 560.68 23.5708C561.078 23.5708 561.436 23.6618 561.755 23.8438C562.073 24.0258 562.324 24.2845 562.506 24.6201C562.693 24.9499 562.787 25.3395 562.787 25.7887C562.787 26.238 562.693 26.6304 562.506 26.9659C562.318 27.2958 562.062 27.5517 561.738 27.7337C561.419 27.9157 561.061 28.0067 560.663 28.0067ZM560.663 27.3925C560.908 27.3925 561.135 27.3328 561.345 27.2133C561.556 27.0939 561.726 26.9148 561.857 26.6759C561.988 26.4371 562.053 26.1413 562.053 25.7887C562.053 25.4362 561.988 25.1404 561.857 24.9016C561.732 24.6627 561.564 24.4836 561.354 24.3642C561.144 24.2447 560.919 24.185 560.68 24.185C560.435 24.185 560.208 24.2447 559.998 24.3642C559.787 24.4836 559.617 24.6627 559.486 24.9016C559.355 25.1404 559.29 25.4362 559.29 25.7887C559.29 26.1413 559.355 26.4371 559.486 26.6759C559.617 26.9148 559.784 27.0939 559.989 27.2133C560.199 27.3328 560.424 27.3925 560.663 27.3925ZM563.783 27.9043V23.6732H564.432L564.474 24.4324C564.611 24.1651 564.807 23.9547 565.063 23.8012C565.319 23.6476 565.609 23.5708 565.933 23.5708C566.434 23.5708 566.832 23.7244 567.127 24.0315C567.429 24.3329 567.579 24.7992 567.579 25.4305V27.9043H566.863V25.5072C566.863 24.6258 566.499 24.185 565.771 24.185C565.407 24.185 565.103 24.3187 564.858 24.586C564.619 24.8476 564.5 25.2229 564.5 25.712V27.9043H563.783ZM570.337 27.9043C569.95 27.9043 569.646 27.8105 569.424 27.6228C569.202 27.4351 569.092 27.0967 569.092 26.6077V24.2789H568.358V23.6732H569.092L569.185 22.6581H569.808V23.6732H571.054V24.2789H569.808V26.6077C569.808 26.875 569.862 27.0569 569.97 27.1536C570.078 27.2446 570.269 27.2901 570.542 27.2901H570.985V27.9043H570.337ZM571.964 27.9043V21.7624H572.68V24.3983C572.823 24.1367 573.025 23.9348 573.286 23.7926C573.548 23.6448 573.832 23.5708 574.139 23.5708C574.628 23.5708 575.021 23.7244 575.316 24.0315C575.612 24.3329 575.76 24.7992 575.76 25.4305V27.9043H575.052V25.5072C575.052 24.6258 574.697 24.185 573.986 24.185C573.616 24.185 573.306 24.3187 573.056 24.586C572.806 24.8476 572.68 25.2229 572.68 25.712V27.9043H571.964ZM576.846 27.9043V21.7624H577.562V27.9043H576.846ZM579.197 29.781L580.247 27.4948H579.999L578.319 23.6732H579.095L580.494 26.9659L581.978 23.6732H582.72L579.948 29.781H579.197Z" fill="#89936D"/>
<path d="M599.274 24.3381L601.406 26.4707L603.539 24.3381" stroke="#89936D" stroke-width="1.0663" stroke-linecap="round" stroke-linejoin="round"/>
<defs>
<filter id="filter0_d_1_1578" x="-4.26522" y="-4.26522" width="668.217" height="298.565" filterUnits="userSpaceOnUse" color-interpolation-filters="sRGB">
<feFlood flood-opacity="0" result="BackgroundImageFix"/>
<feColorMatrix in="SourceAlpha" type="matrix" values="0 0 0 0 0 0 0 0 0 0 0 0 0 0 0 0 0 0 127 0" result="hardAlpha"/>
<feMorphology radius="7.1087" operator="erode" in="SourceAlpha" result="effect1_dropShadow_1_1578"/>
<feOffset dx="2.84348" dy="2.84348"/>
<feGaussianBlur stdDeviation="7.1087"/>
<feComposite in2="hardAlpha" operator="out"/>
<feColorMatrix type="matrix" values="0 0 0 0 0 0 0 0 0 0 0 0 0 0 0 0 0 0 0.1 0"/>
<feBlend mode="normal" in2="BackgroundImageFix" result="effect1_dropShadow_1_1578"/>
<feBlend mode="normal" in="SourceGraphic" in2="effect1_dropShadow_1_1578" result="shape"/>
</filter>
<filter id="filter1_b_1_1578" x="322.735" y="63.9782" width="85.3043" height="54.8435" filterUnits="userSpaceOnUse" color-interpolation-filters="sRGB">
<feFlood flood-opacity="0" result="BackgroundImageFix"/>
<feGaussianBlur in="BackgroundImageFix" stdDeviation="7.1087"/>
<feComposite in2="SourceAlpha" operator="in" result="effect1_backgroundBlur_1_1578"/>
<feBlend mode="normal" in="SourceGraphic" in2="effect1_backgroundBlur_1_1578" result="shape"/>
</filter>
<linearGradient id="paint0_linear_1_1578" x1="335.53" y1="57.5804" x2="335.53" y2="240.629" gradientUnits="userSpaceOnUse">
<stop/>
<stop offset="1" stop-opacity="0.5"/>
</linearGradient>
<linearGradient id="paint1_linear_1_1578" x1="335.53" y1="57.5803" x2="335.53" y2="211.128" gradientUnits="userSpaceOnUse">
<stop stop-color="#8BCB03"/>
<stop offset="1" stop-color="#CEFB18"/>
</linearGradient>
</defs>
</svg>
