<svg width="212" height="65" viewBox="0 0 212 65" fill="none" xmlns="http://www.w3.org/2000/svg">
<path d="M49.6398 57.0683C49.3486 57.0683 49.0839 56.9889 48.8191 56.8565L27.9043 45.0721C27.3748 44.7808 27.0571 44.2511 27.0571 43.642V7.38845C27.0571 6.48807 27.7719 5.74658 28.6985 5.74658H70.5547C71.4549 5.74658 72.1961 6.46159 72.1961 7.38845V43.642C72.1961 44.2246 71.852 44.7808 71.349 45.0721L50.4341 56.8565C50.1693 57.0153 49.9311 57.0683 49.6398 57.0683ZM30.3664 42.7152L49.6398 53.5727L68.9398 42.7152V9.03033H30.3664V42.7152Z" fill="white"/>
<path d="M49.6397 40.6761C49.3485 40.6761 49.0837 40.5967 48.819 40.4642L42.2003 36.7038C41.6708 36.4125 41.3531 35.8829 41.3531 35.2738V28.3885H44.636V34.294L49.6397 37.1011L55.4641 33.8173L57.079 36.6773L50.4604 40.4378C50.1692 40.5967 49.9309 40.6761 49.6397 40.6761Z" fill="white"/>
<path d="M49.6399 48.8854C49.3487 48.8854 49.0839 48.806 48.8192 48.6736L35.026 40.9144C34.4965 40.6231 34.1788 40.067 34.1788 39.4844V21.7151C34.1788 20.8147 34.8936 20.0732 35.8202 20.0732H56.0467V23.357H37.4616V38.5575L49.5869 45.3898L61.7123 38.5575V31.4339H65.0481V39.4579C65.0481 40.0405 64.7039 40.5966 64.2009 40.8879L50.4077 48.6471C50.1694 48.8325 49.9311 48.8854 49.6399 48.8854Z" fill="white"/>
<path d="M65.048 25.1578H61.7652V16.207H40.0031V12.9232H63.3801C64.2803 12.9232 65.0215 13.6382 65.0215 14.5651V25.1578H65.048ZM87.7632 28.5475C87.7632 21.5298 92.9786 16.1275 100.153 16.1275C104.469 16.1275 108.281 18.2725 110.346 21.6622L105.66 24.3898C104.601 22.5626 102.536 21.4504 100.153 21.4504C95.9438 21.4504 93.2169 24.2839 93.2169 28.5475C93.2169 32.8375 95.9438 35.6446 100.153 35.6446C102.562 35.6446 104.654 34.5588 105.66 32.7051L110.346 35.4327C108.334 38.7959 104.495 40.941 100.153 40.941C92.9786 40.941 87.7632 35.5652 87.7632 28.5475ZM157.259 35.6181V40.9145H141.162V16.1275H157.259V21.4239H146.828V25.661H156.015V31.0368H146.828V35.5652H157.259V35.6181ZM130.414 31.8577C133.141 30.4806 134.994 27.6736 134.994 24.6547C134.994 19.9144 131.208 16.1275 126.522 16.1275H116.594V40.941H122.259V32.811H124.96L129.619 40.941H135.709L130.414 31.8577ZM126.495 27.8325H122.259V21.4504H126.495C128.031 21.4504 129.302 22.8539 129.302 24.6547C129.302 26.4554 128.031 27.8325 126.495 27.8325ZM172.508 16.1275H163.401V40.8615H172.508C179.312 40.8615 184.528 35.4857 184.528 28.468C184.528 21.5033 179.339 16.1275 172.508 16.1275ZM172.508 35.6181H169.066V21.4504H172.508C176.373 21.4504 179.074 24.2574 179.074 28.521C179.1 32.7581 176.426 35.6181 172.508 35.6181Z" fill="white"/>
</svg>
