<svg width="154" height="49" viewBox="0 0 154 49" fill="none" xmlns="http://www.w3.org/2000/svg">
<path fill-rule="evenodd" clip-rule="evenodd" d="M44.3331 5.54756C45.5108 5.35907 46.8769 5.26483 47.8662 5.99522C48.5021 6.46644 48.7141 7.31464 48.667 8.06859C48.7141 9.31732 48.1253 10.6367 47.0182 11.2964C46.0525 11.8148 44.8513 11.8619 43.7678 11.7677C43.0376 11.6734 42.3074 11.2729 41.9306 10.6132C41.0826 8.65762 42.1426 5.92454 44.3331 5.54756Z" fill="white"/>
<path d="M44.3331 5.54756C45.5108 5.35907 46.8769 5.26483 47.8662 5.99522C48.5021 6.46644 48.7141 7.31464 48.667 8.06859C48.7141 9.31732 48.1253 10.6367 47.0182 11.2964C46.0525 11.8148 44.8513 11.8619 43.7678 11.7677C43.0376 11.6734 42.3074 11.2729 41.9306 10.6132C41.0826 8.65762 42.1426 5.92454 44.3331 5.54756Z" stroke="white" stroke-width="1.36261" stroke-miterlimit="2.613"/>
<path fill-rule="evenodd" clip-rule="evenodd" d="M9.09628 6.93774C9.16694 6.27803 9.75579 5.66545 10.4624 5.68901C15.5736 5.68901 20.7084 5.71257 25.796 5.68901C26.3613 5.64189 26.9502 5.8775 27.2328 6.37228C27.6097 7.03199 27.2799 7.78594 27.2328 8.44565C27.068 9.38809 27.1151 10.6368 26.0316 10.9902C22.3101 11.108 18.565 10.9902 14.8434 11.0374C14.4901 13.3935 14.1604 15.726 13.8071 18.0821C13.8071 18.1528 13.8306 18.3648 13.8306 18.4591C16.5629 18.4355 19.2951 18.4591 22.0274 18.4355C22.7811 18.3884 23.582 19.0481 23.5113 19.8256C23.4406 20.6503 23.2758 21.4513 23.1344 22.276C23.0638 22.8414 22.6163 23.3362 22.0274 23.454C18.9889 23.5247 15.9034 23.3833 12.8649 23.5247C12.3703 26.8939 11.805 30.2396 11.2868 33.5852C11.2161 34.245 10.6744 34.834 10.0149 34.8575C8.74297 34.8811 7.47106 34.8811 6.2227 34.8575C5.39831 34.8811 4.7388 33.9622 4.95078 33.1847C6.31691 24.4436 7.7066 15.7024 9.09628 6.93774Z" fill="white"/>
<path d="M9.09628 6.93774C9.16694 6.27803 9.75579 5.66545 10.4624 5.68901C15.5736 5.68901 20.7084 5.71257 25.796 5.68901C26.3613 5.64189 26.9502 5.8775 27.2328 6.37228C27.6097 7.03199 27.2799 7.78594 27.2328 8.44565C27.068 9.38809 27.1151 10.6368 26.0316 10.9902C22.3101 11.108 18.565 10.9902 14.8434 11.0374C14.4901 13.3935 14.1604 15.726 13.8071 18.0821C13.8071 18.1528 13.8306 18.3648 13.8306 18.4591C16.5629 18.4355 19.2951 18.4591 22.0274 18.4355C22.7811 18.3884 23.582 19.0481 23.5113 19.8256C23.4406 20.6503 23.2758 21.4513 23.1344 22.276C23.0638 22.8414 22.6163 23.3362 22.0274 23.454C18.9889 23.5247 15.9034 23.3833 12.8649 23.5247C12.3703 26.8939 11.805 30.2396 11.2868 33.5852C11.2161 34.245 10.6744 34.834 10.0149 34.8575C8.74297 34.8811 7.47106 34.8811 6.2227 34.8575C5.39831 34.8811 4.7388 33.9622 4.95078 33.1847C6.31691 24.4436 7.7066 15.7024 9.09628 6.93774Z" stroke="white" stroke-width="1.36261" stroke-miterlimit="2.613"/>
<path fill-rule="evenodd" clip-rule="evenodd" d="M31.6845 5.73612C32.8386 5.64188 34.0163 5.71256 35.1704 5.689C35.8771 5.64188 36.6072 6.20734 36.6543 6.93773C36.6543 7.5032 36.4895 8.09222 36.4188 8.65769C35.4766 14.6186 34.5345 20.5796 33.5923 26.5169C33.451 27.4829 33.2155 28.4961 33.5217 29.4856C33.8514 30.4516 35.3353 30.0511 35.6886 31.0642C35.9242 31.8888 35.6651 32.737 35.5944 33.6088C35.5237 34.7162 34.2518 34.9753 33.4039 35.2109C31.5196 35.5644 29.2348 35.3052 27.8687 33.7502C26.8794 32.6192 26.8323 31.0171 27.0208 29.5799C28.1985 22.0168 29.3762 14.4537 30.5774 6.89061C30.6716 6.34871 31.0956 5.83037 31.6845 5.73612Z" fill="white"/>
<path d="M31.6845 5.73612C32.8386 5.64188 34.0163 5.71256 35.1704 5.689C35.8771 5.64188 36.6072 6.20734 36.6543 6.93773C36.6543 7.5032 36.4895 8.09222 36.4188 8.65769C35.4766 14.6186 34.5345 20.5796 33.5923 26.5169C33.451 27.4829 33.2155 28.4961 33.5217 29.4856C33.8514 30.4516 35.3353 30.0511 35.6886 31.0642C35.9242 31.8888 35.6651 32.737 35.5944 33.6088C35.5237 34.7162 34.2518 34.9753 33.4039 35.2109C31.5196 35.5644 29.2348 35.3052 27.8687 33.7502C26.8794 32.6192 26.8323 31.0171 27.0208 29.5799C28.1985 22.0168 29.3762 14.4537 30.5774 6.89061C30.6716 6.34871 31.0956 5.83037 31.6845 5.73612Z" stroke="white" stroke-width="1.36261" stroke-miterlimit="2.613"/>
<path fill-rule="evenodd" clip-rule="evenodd" d="M75.7776 6.93765C75.8483 6.27794 76.4371 5.68892 77.1202 5.68892H80.4884C81.3364 5.66536 82.0194 6.58424 81.831 7.36175C81.0537 12.286 80.2529 17.2338 79.4756 22.1581C80.6533 21.9931 81.9723 21.7575 82.8203 20.8151C84.1864 19.2601 85.317 17.4459 86.1885 15.561C86.4711 14.8306 86.636 13.7703 87.5782 13.629C88.8501 13.5819 90.1455 13.629 91.3939 13.629C92.2654 13.629 92.9014 14.595 92.6187 15.3961C92.289 16.5741 91.7237 17.6579 91.1584 18.6946C89.8865 20.7915 88.4497 22.8649 86.5889 24.4906C87.3897 26.941 88.4497 29.3677 89.3683 31.771C89.6274 32.572 90.2869 33.5145 89.6745 34.292C88.9914 35.2344 87.6959 34.7632 86.7302 34.881C85.741 34.7632 84.2806 35.2815 83.7389 34.1506C82.7025 31.7238 81.831 29.2499 80.7711 26.8231C80.1587 26.8467 79.4992 26.8703 78.8868 26.7996C78.8396 26.8938 78.7454 27.0588 78.6983 27.153C78.3686 29.3913 78.0153 31.606 77.6619 33.8208C77.5442 34.3627 77.1202 34.8339 76.5314 34.8575C75.3537 34.9046 74.1524 34.881 72.9512 34.881C72.433 34.881 71.9619 34.5512 71.7499 34.1035C71.5144 33.6558 71.6557 33.1375 71.7264 32.6663C73.0689 24.0901 74.4115 15.5139 75.7776 6.93765Z" fill="white"/>
<path d="M75.7776 6.93765C75.8483 6.27794 76.4371 5.68892 77.1202 5.68892H80.4884C81.3364 5.66536 82.0194 6.58424 81.831 7.36175C81.0537 12.286 80.2529 17.2338 79.4756 22.1581C80.6533 21.9931 81.9723 21.7575 82.8203 20.8151C84.1864 19.2601 85.317 17.4459 86.1885 15.561C86.4711 14.8306 86.636 13.7703 87.5782 13.629C88.8501 13.5819 90.1455 13.629 91.3939 13.629C92.2654 13.629 92.9014 14.595 92.6187 15.3961C92.289 16.5741 91.7237 17.6579 91.1584 18.6946C89.8865 20.7915 88.4497 22.8649 86.5889 24.4906C87.3897 26.9409 88.4497 29.3677 89.3683 31.771C89.6274 32.572 90.2869 33.5145 89.6745 34.292C88.9914 35.2344 87.6959 34.7632 86.7302 34.881C85.741 34.7632 84.2806 35.2815 83.7389 34.1506C82.7025 31.7238 81.831 29.2499 80.7711 26.8231C80.1587 26.8467 79.4992 26.8703 78.8868 26.7996C78.8396 26.8938 78.7454 27.0588 78.6983 27.153C78.3686 29.3913 78.0153 31.606 77.6619 33.8208C77.5442 34.3627 77.1202 34.8339 76.5314 34.8574C75.3537 34.9046 74.1524 34.881 72.9512 34.881C72.433 34.881 71.9619 34.5512 71.7499 34.1035C71.5144 33.6558 71.6557 33.1375 71.7264 32.6663C73.0689 24.0901 74.4115 15.5139 75.7776 6.93765Z" stroke="white" stroke-width="1.36261" stroke-miterlimit="2.613"/>
<path fill-rule="evenodd" clip-rule="evenodd" d="M137.512 9.36446C137.677 8.72831 138.266 8.32777 138.879 8.35133C139.75 8.37489 140.692 8.32777 141.587 8.37489C142.317 8.39845 142.906 9.12885 142.812 9.83568C142.671 11.108 142.365 12.3567 142.27 13.629C143.142 13.629 144.037 13.629 144.908 13.629C145.686 13.629 146.322 14.4301 146.204 15.184C146.086 15.8909 145.921 16.5506 145.827 17.2338C145.709 17.7993 145.215 18.2705 144.673 18.3648C143.613 18.4354 142.577 18.3176 141.517 18.4354C141.069 21.4041 140.574 24.3964 140.103 27.3651C140.033 28.0483 139.986 28.8258 140.386 29.4384C140.998 30.1688 142.035 29.9097 142.859 30.0039C143.519 30.1924 143.966 30.9228 143.848 31.606C143.754 32.36 143.707 33.114 143.519 33.8443C143.26 34.669 142.317 34.8103 141.564 35.0224C139.538 35.5643 137.206 35.5643 135.416 34.3862C133.744 33.2553 133.485 31.0406 133.65 29.1793C134.121 25.5744 134.851 21.9932 135.251 18.3648C134.615 18.3883 133.885 18.4826 133.414 17.9171C132.872 17.3516 133.155 16.5506 133.249 15.8437C133.367 15.1133 133.367 14.1709 134.144 13.7704C134.78 13.5348 135.51 13.6997 136.217 13.6054C136.665 12.1918 137.065 10.7781 137.512 9.36446Z" fill="white"/>
<path d="M137.512 9.36446C137.677 8.72831 138.266 8.32777 138.879 8.35133C139.75 8.37489 140.692 8.32777 141.587 8.37489C142.317 8.39845 142.906 9.12885 142.812 9.83568C142.671 11.108 142.365 12.3567 142.27 13.629C143.142 13.629 144.037 13.629 144.908 13.629C145.686 13.629 146.322 14.4301 146.204 15.184C146.086 15.8909 145.921 16.5506 145.827 17.2338C145.709 17.7993 145.215 18.2705 144.673 18.3648C143.613 18.4354 142.577 18.3176 141.517 18.4354C141.069 21.4041 140.574 24.3964 140.103 27.3651C140.033 28.0483 139.986 28.8258 140.386 29.4384C140.998 30.1688 142.035 29.9097 142.859 30.0039C143.519 30.1924 143.966 30.9228 143.848 31.606C143.754 32.36 143.707 33.114 143.519 33.8443C143.26 34.669 142.317 34.8103 141.564 35.0224C139.538 35.5643 137.206 35.5643 135.416 34.3862C133.744 33.2553 133.485 31.0406 133.65 29.1793C134.121 25.5744 134.851 21.9932 135.251 18.3648C134.615 18.3883 133.885 18.4826 133.414 17.9171C132.872 17.3516 133.155 16.5506 133.249 15.8437C133.367 15.1133 133.367 14.1709 134.144 13.7704C134.78 13.5348 135.51 13.6997 136.217 13.6054C136.665 12.1918 137.065 10.7781 137.512 9.36446Z" stroke="white" stroke-width="1.36261" stroke-miterlimit="2.613"/>
<path fill-rule="evenodd" clip-rule="evenodd" d="M124.958 16.5741C126.348 15.184 128.044 14.006 129.975 13.4405C130.823 13.0635 131.907 13.7703 131.883 14.7128C131.718 15.938 131.436 17.1396 131.247 18.3412C131.153 18.9302 130.658 19.4485 130.046 19.5192C127.879 19.8962 125.971 21.2156 124.487 22.7707C124.11 23.2419 123.545 23.666 123.474 24.3257C123.003 27.4357 122.509 30.5693 122.038 33.6558C121.967 34.3155 121.378 34.9753 120.695 34.9281H117.303C116.526 34.9753 115.843 34.1742 115.937 33.3967C116.926 27.2237 117.892 21.0978 118.858 14.9484C118.905 14.3122 119.352 13.7232 119.988 13.6525C120.813 13.6054 121.637 13.6525 122.485 13.6525C123.145 13.6525 123.757 14.2416 123.757 14.9248C123.757 15.8908 123.663 16.8568 123.663 17.8228C124.181 17.493 124.511 16.9746 124.958 16.5741Z" fill="white"/>
<path d="M124.958 16.5741C126.348 15.184 128.044 14.006 129.975 13.4405C130.823 13.0635 131.907 13.7703 131.883 14.7128C131.718 15.938 131.436 17.1396 131.247 18.3412C131.153 18.9302 130.658 19.4485 130.046 19.5192C127.879 19.8962 125.971 21.2156 124.487 22.7707C124.11 23.2419 123.545 23.666 123.474 24.3257C123.003 27.4357 122.509 30.5693 122.038 33.6558C121.967 34.3155 121.378 34.9753 120.695 34.9281H117.303C116.526 34.9753 115.843 34.1742 115.937 33.3967C116.926 27.2237 117.892 21.0978 118.858 14.9484C118.905 14.3122 119.352 13.7232 119.988 13.6525C120.813 13.6054 121.637 13.6525 122.485 13.6525C123.145 13.6525 123.757 14.2416 123.757 14.9248C123.757 15.8908 123.663 16.8568 123.663 17.8228C124.181 17.493 124.511 16.9746 124.958 16.5741Z" stroke="white" stroke-width="1.36261" stroke-miterlimit="2.613"/>
<path fill-rule="evenodd" clip-rule="evenodd" d="M41.9068 13.7468C43.1081 13.5112 44.3564 13.6997 45.5577 13.629C46.2408 13.5583 46.9945 13.9824 47.0887 14.6657C47.1829 15.2783 46.9945 15.8909 46.9238 16.4799C46.0052 22.2052 45.1102 27.907 44.2151 33.6087C44.1445 34.2449 43.6027 34.881 42.9197 34.881C41.7184 34.881 40.5172 34.9046 39.3159 34.8575C38.5622 34.7868 37.9969 33.8915 38.2089 33.1846C39.151 27.2473 40.0696 21.3334 41.0118 15.3961C41.0589 14.7599 41.2473 14.006 41.9068 13.7468Z" fill="white"/>
<path d="M41.9068 13.7468C43.1081 13.5112 44.3564 13.6997 45.5577 13.629C46.2408 13.5583 46.9945 13.9824 47.0887 14.6657C47.1829 15.2783 46.9945 15.8909 46.9238 16.4799C46.0052 22.2052 45.1102 27.907 44.2151 33.6087C44.1445 34.2449 43.6027 34.881 42.9197 34.881C41.7184 34.881 40.5172 34.9046 39.3159 34.8575C38.5622 34.7868 37.9969 33.8915 38.2089 33.1846C39.151 27.2473 40.0696 21.3334 41.0118 15.3961C41.0589 14.7599 41.2473 14.006 41.9068 13.7468Z" stroke="white" stroke-width="1.36261" stroke-miterlimit="2.613"/>
<path fill-rule="evenodd" clip-rule="evenodd" d="M113.817 14.0296C110.496 13.417 107.128 12.9693 103.76 13.2992C100.768 13.6762 97.7533 15.0427 95.8926 17.4931C93.3252 20.7445 92.4773 25.1033 93.0426 29.1322C93.3723 31.0642 94.1967 33.0198 95.7748 34.2214C97.2352 35.3523 99.2137 35.4937 101.004 35.2109C103.477 34.7397 105.597 33.1376 107.316 31.3469C107.41 32.1009 107.246 32.8784 107.293 33.5852C107.316 34.2685 107.952 34.9282 108.635 34.8811H110.896C111.556 34.8811 112.121 34.2449 112.168 33.6088C113.111 27.5772 114.076 21.5927 114.995 15.5846C115.16 14.8542 114.571 14.1238 113.817 14.0296ZM107.575 24.5142C106.704 26.1871 105.455 27.695 104.042 28.9908C103.241 29.6505 102.205 30.3338 101.145 30.1217C100.062 29.8861 99.567 28.7788 99.3315 27.8363C98.7662 25.3624 99.2843 22.6293 100.674 20.4853C101.31 19.4722 102.299 18.7182 103.453 18.4119C105.079 18.0114 106.775 18.1999 108.353 18.6475L108.423 18.7418C108.235 20.6738 107.858 22.5822 107.575 24.5142Z" fill="white"/>
<path d="M113.817 14.0296C110.496 13.417 107.128 12.9693 103.76 13.2992C100.768 13.6762 97.7533 15.0427 95.8926 17.4931C93.3252 20.7445 92.4773 25.1033 93.0426 29.1322C93.3723 31.0642 94.1967 33.0198 95.7748 34.2214C97.2352 35.3523 99.2137 35.4937 101.004 35.2109C103.477 34.7397 105.597 33.1376 107.316 31.3469C107.41 32.1009 107.246 32.8784 107.293 33.5852C107.316 34.2685 107.952 34.9282 108.635 34.8811H110.896C111.556 34.8811 112.121 34.2449 112.168 33.6088C113.111 27.5772 114.076 21.5927 114.995 15.5846C115.16 14.8542 114.571 14.1238 113.817 14.0296ZM107.575 24.5142C106.704 26.1871 105.455 27.695 104.042 28.9908C103.241 29.6505 102.205 30.3338 101.145 30.1217C100.062 29.8861 99.567 28.7788 99.3315 27.8363C98.7662 25.3624 99.2843 22.6293 100.674 20.4853C101.31 19.4722 102.299 18.7182 103.453 18.4119C105.079 18.0114 106.775 18.1999 108.353 18.6475L108.423 18.7418C108.235 20.6738 107.858 22.5822 107.575 24.5142Z" stroke="white" stroke-width="1.36261" stroke-miterlimit="2.613"/>
<path fill-rule="evenodd" clip-rule="evenodd" d="M70.1951 21.1685C70.1716 18.9538 69.5592 16.6212 68.0046 14.9484C66.9447 13.7703 65.343 13.1813 63.7885 13.1813C61.2211 13.1106 58.795 14.3594 56.9107 16.0558C56.5103 16.3856 56.2041 16.8804 55.733 17.1631C55.733 16.4327 55.8037 15.6788 55.7801 14.9484C55.7801 14.2416 55.1442 13.6525 54.4846 13.6525H52.2235C51.5168 13.6525 50.928 14.2887 50.9044 14.9484C49.4912 23.8309 48.078 32.7134 46.6647 41.6195C46.4527 42.4441 47.1829 43.2923 48.0309 43.2687C49.2792 43.2452 50.5276 43.363 51.7759 43.1745C52.7416 42.9153 52.7416 41.7844 52.883 40.9598C53.2363 39.0042 53.4718 37.0486 53.7074 35.0695C58.0884 35.9177 63.1761 35.3287 66.4265 32.0301C69.0881 29.1086 70.3365 25.0796 70.1951 21.1685ZM63.9769 23.4068C63.8356 25.4566 63.1054 27.5064 61.6922 29.0143C59.8549 30.7814 57.052 30.5222 54.7908 29.9332C54.7437 29.8625 54.6731 29.7447 54.6495 29.674C55.0028 27.742 55.1913 25.7865 55.6152 23.878C56.8636 21.8282 58.371 19.7784 60.5145 18.6475C61.3153 18.2705 62.3988 18.3647 62.9876 19.0951C63.9769 20.2732 64.0711 21.9225 63.9769 23.4068Z" fill="white"/>
<path d="M70.1951 21.1685C70.1716 18.9538 69.5592 16.6212 68.0046 14.9484C66.9447 13.7703 65.343 13.1813 63.7885 13.1813C61.2211 13.1106 58.795 14.3594 56.9107 16.0558C56.5103 16.3856 56.2041 16.8804 55.733 17.1631C55.733 16.4327 55.8037 15.6788 55.7801 14.9484C55.7801 14.2416 55.1442 13.6525 54.4846 13.6525H52.2235C51.5168 13.6525 50.928 14.2887 50.9044 14.9484C49.4912 23.8309 48.078 32.7134 46.6647 41.6195C46.4527 42.4441 47.1829 43.2923 48.0309 43.2687C49.2792 43.2452 50.5276 43.363 51.7759 43.1745C52.7416 42.9153 52.7416 41.7844 52.883 40.9598C53.2363 39.0042 53.4718 37.0486 53.7074 35.0695C58.0884 35.9177 63.1761 35.3287 66.4265 32.0301C69.0881 29.1086 70.3365 25.0796 70.1951 21.1685ZM63.9769 23.4068C63.8356 25.4566 63.1054 27.5064 61.6922 29.0143C59.8549 30.7814 57.052 30.5222 54.7908 29.9332C54.7437 29.8625 54.6731 29.7447 54.6495 29.674C55.0028 27.742 55.1913 25.7865 55.6152 23.878C56.8636 21.8282 58.371 19.7784 60.5145 18.6475C61.3153 18.2705 62.3988 18.3647 62.9876 19.0951C63.9769 20.2732 64.0711 21.9225 63.9769 23.4068Z" stroke="white" stroke-width="1.36261" stroke-miterlimit="2.613"/>
</svg>
