<svg width="65" height="52" viewBox="0 0 65 52" fill="none" xmlns="http://www.w3.org/2000/svg">
<g clip-path="url(#clip0_1_1572)">
<path d="M32.5001 0L65 19.5127V32.4822L32.5001 52L0 32.4822V19.5129L32.5001 0Z" fill="black"/>
<path fill-rule="evenodd" clip-rule="evenodd" d="M0 19.5127L32.5 0L65 19.5127V32.4822L32.5 52L0 32.4822V19.5127ZM32.5 43.7203L58.1057 28.3429V23.6536L58.1044 23.6528L32.5 39.0256L6.89554 23.6528L6.89429 23.6536V28.3429L32.5 43.7203ZM32.5 31.856L52.1323 20.0689L47.3498 17.1987L32.5 26.1145L17.6502 17.1987L12.8677 20.0689L32.5 31.856ZM32.5 18.9449L41.3777 13.6148L32.5 8.28707L23.6223 13.6148L32.5 18.9449Z" fill="#F1FF9D"/>
<path d="M32.5001 0L0 19.5129V32.4822L32.5 52L32.5001 0Z" fill="black" fill-opacity="0.3"/>
</g>
<defs>
<clipPath id="clip0_1_1572">
<rect width="65" height="52" fill="white"/>
</clipPath>
</defs>
</svg>
