<svg width="518" height="441" viewBox="0 0 518 441" fill="none" xmlns="http://www.w3.org/2000/svg">
<g filter="url(#filter0_d_1_1669)">
<rect x="5" y="4" width="507.446" height="430.982" rx="9.26842" fill="#181818"/>
</g>
<path d="M36.8581 55.8053H32.5761L40.0441 38.7282H45.4986L53.0176 55.8053H48.6336L47.0278 52.033H38.4893L36.8581 55.8053ZM41.5734 44.8708L39.9676 48.5921H45.5495L43.9438 44.8708L42.8988 42.2201H42.6184L41.5734 44.8708ZM60.358 56.0601C56.0505 56.0601 53.6801 54.3779 53.6801 51.4213V51.3448H57.5033V51.5742C57.5033 52.7212 58.2169 53.0271 60.3834 53.0271C62.4225 53.0271 62.9068 52.6957 62.9068 51.9311C62.9068 51.2174 62.5244 51.0135 61.0206 50.8096L57.4268 50.3763C54.878 50.0959 53.4507 48.9489 53.4507 46.8079C53.4507 44.565 55.3623 42.7808 59.7462 42.7808C63.9263 42.7808 66.2967 44.3611 66.2967 47.4706V47.5471H62.4735V47.3942C62.4735 46.3492 61.9637 45.8139 59.6188 45.8139C57.7072 45.8139 57.2229 46.1453 57.2229 46.9609C57.2229 47.6236 57.5797 47.9039 59.262 48.1078L61.9892 48.4392C65.4046 48.8215 66.679 49.9685 66.679 52.084C66.679 54.4799 64.3086 56.0601 60.358 56.0601ZM74.6702 56.0601C70.3627 56.0601 67.9923 54.3779 67.9923 51.4213V51.3448H71.8155V51.5742C71.8155 52.7212 72.5291 53.0271 74.6956 53.0271C76.7347 53.0271 77.219 52.6957 77.219 51.9311C77.219 51.2174 76.8366 51.0135 75.3328 50.8096L71.739 50.3763C69.1902 50.0959 67.7629 48.9489 67.7629 46.8079C67.7629 44.565 69.6745 42.7808 74.0584 42.7808C78.2385 42.7808 80.6089 44.3611 80.6089 47.4706V47.5471H76.7857V47.3942C76.7857 46.3492 76.2759 45.8139 73.931 45.8139C72.0194 45.8139 71.5351 46.1453 71.5351 46.9609C71.5351 47.6236 71.8919 47.9039 73.5742 48.1078L76.3014 48.4392C79.7168 48.8215 80.9912 49.9685 80.9912 52.084C80.9912 54.4799 78.6208 56.0601 74.6702 56.0601ZM89.3137 56.0601C85.0572 56.0601 82.1515 53.9701 82.1515 49.4332C82.1515 45.3551 85.0317 42.7808 89.2372 42.7808C93.4173 42.7808 96.1955 44.9728 96.1955 48.9744C96.1955 49.4332 96.1445 49.7646 96.0936 50.1979H85.6944C85.7963 52.1605 86.7139 53.0016 89.1863 53.0016C91.4547 53.0016 92.2448 52.4153 92.2448 51.3193V51.0645H96.0681V51.3448C96.0681 54.123 93.3663 56.0601 89.3137 56.0601ZM89.1608 45.7629C86.8923 45.7629 85.9238 46.5276 85.7454 48.1843H92.5252C92.4233 46.5021 91.4037 45.7629 89.1608 45.7629ZM106.814 55.8053H103.654C100.671 55.8053 98.8618 54.4034 98.8618 51.1919V46.1962H96.8482V43.0357H98.8618V40.5633H102.685V43.0357H106.814V46.1962H102.685V50.7586C102.685 52.033 103.169 52.3644 104.52 52.3644H106.814V55.8053ZM114.695 56.0601C110.387 56.0601 108.017 54.3779 108.017 51.4213V51.3448H111.84V51.5742C111.84 52.7212 112.554 53.0271 114.72 53.0271C116.759 53.0271 117.243 52.6957 117.243 51.9311C117.243 51.2174 116.861 51.0135 115.357 50.8096L111.763 50.3763C109.215 50.0959 107.787 48.9489 107.787 46.8079C107.787 44.565 109.699 42.7808 114.083 42.7808C118.263 42.7808 120.633 44.3611 120.633 47.4706V47.5471H116.81V47.3942C116.81 46.3492 116.3 45.8139 113.955 45.8139C112.044 45.8139 111.559 46.1453 111.559 46.9609C111.559 47.6236 111.916 47.9039 113.599 48.1078L116.326 48.4392C119.741 48.8215 121.016 49.9685 121.016 52.084C121.016 54.4799 118.645 56.0601 114.695 56.0601Z" fill="#FEFEFE"/>
<path d="M38.6282 113.684H37.4604V109.824L32.7404 102.817H34.1515L37.136 107.245L38.0281 108.575H38.1254L39.0012 107.245L41.9695 102.817H43.3806L38.6282 109.824V113.684ZM48.5108 113.846C45.8994 113.846 44.1639 112.111 44.1639 109.678C44.1639 107.245 45.8994 105.509 48.5108 105.509C51.1384 105.509 52.8739 107.245 52.8739 109.678C52.8739 112.111 51.1384 113.846 48.5108 113.846ZM48.5108 112.808C50.7167 112.808 51.7385 111.624 51.7385 109.678C51.7385 107.748 50.7167 106.548 48.5108 106.548C46.3049 106.548 45.2993 107.748 45.2993 109.678C45.2993 111.624 46.3049 112.808 48.5108 112.808ZM58.0533 113.846C55.7663 113.846 54.6471 112.257 54.6471 110.359V105.672H55.7987V110.181C55.7987 111.851 56.6097 112.808 58.4588 112.808C60.4214 112.808 61.4432 111.624 61.4432 109.564V105.672H62.5948V113.684H61.5567V111.186H61.4757C61.1999 112.549 60.0483 113.846 58.0533 113.846ZM65.9734 113.684H64.8218V105.672H65.8599V107.861H65.941C66.1843 106.58 67.0926 105.509 68.7632 105.509C70.6123 105.509 71.4233 106.872 71.4233 108.364V109.159H70.2717V108.543C70.2717 107.18 69.704 106.515 68.3091 106.515C66.6871 106.515 65.9734 107.537 65.9734 109.337V113.684ZM81.2292 113.684H79.4937C77.9041 113.684 76.8823 113.019 76.8823 111.138V106.661H75.4549V105.672H76.8823V103.758H78.0501V105.672H81.2292V106.661H78.0501V111.203C78.0501 112.322 78.6016 112.63 79.7694 112.63H81.2292V113.684ZM86.7068 113.846C84.0955 113.846 82.3599 112.111 82.3599 109.678C82.3599 107.245 84.0955 105.509 86.7068 105.509C89.3344 105.509 91.0699 107.245 91.0699 109.678C91.0699 112.111 89.3344 113.846 86.7068 113.846ZM86.7068 112.808C88.9127 112.808 89.9346 111.624 89.9346 109.678C89.9346 107.748 88.9127 106.548 86.7068 106.548C84.501 106.548 83.4953 107.748 83.4953 109.678C83.4953 111.624 84.501 112.808 86.7068 112.808ZM97.8064 113.684H96.0709C94.4814 113.684 93.4595 113.019 93.4595 111.138V106.661H92.0322V105.672H93.4595V103.758H94.6274V105.672H97.8064V106.661H94.6274V111.203C94.6274 112.322 95.1788 112.63 96.3467 112.63H97.8064V113.684ZM101.581 113.846C100.008 113.846 98.9372 113.1 98.9372 111.803C98.9372 110.489 100.024 109.921 101.516 109.759L105.328 109.337V108.721C105.328 107.164 104.647 106.548 102.895 106.548C101.176 106.548 100.267 107.164 100.267 108.575V108.64H99.1156V108.575C99.1156 106.888 100.511 105.509 102.976 105.509C105.409 105.509 106.447 106.904 106.447 108.672V113.684H105.409V111.527H105.328C104.857 113.003 103.446 113.846 101.581 113.846ZM100.089 111.722C100.089 112.533 100.624 112.954 101.841 112.954C103.787 112.954 105.328 112.095 105.328 110.165V110.1L101.873 110.489C100.673 110.602 100.089 110.894 100.089 111.722ZM109.781 113.684H108.63V102.817H109.781V113.684ZM116.314 113.684H115.275V102.817H116.427V107.91H116.508C116.849 106.531 118 105.509 119.931 105.509C122.445 105.509 123.823 107.245 123.823 109.678C123.823 112.111 122.445 113.846 119.833 113.846C118.049 113.846 116.768 112.922 116.395 111.316H116.314V113.684ZM116.427 109.808C116.427 111.705 117.627 112.792 119.557 112.792C121.471 112.792 122.655 111.997 122.655 109.678C122.655 107.359 121.439 106.58 119.59 106.58C117.562 106.58 116.427 107.683 116.427 109.662V109.808ZM127.75 113.846C126.177 113.846 125.106 113.1 125.106 111.803C125.106 110.489 126.193 109.921 127.685 109.759L131.497 109.337V108.721C131.497 107.164 130.816 106.548 129.064 106.548C127.345 106.548 126.437 107.164 126.437 108.575V108.64H125.285V108.575C125.285 106.888 126.68 105.509 129.145 105.509C131.578 105.509 132.616 106.904 132.616 108.672V113.684H131.578V111.527H131.497C131.027 113.003 129.616 113.846 127.75 113.846ZM126.258 111.722C126.258 112.533 126.793 112.954 128.01 112.954C129.956 112.954 131.497 112.095 131.497 110.165V110.1L128.042 110.489C126.842 110.602 126.258 110.894 126.258 111.722ZM135.95 113.684H134.799V102.817H135.95V113.684ZM140.399 113.846C138.826 113.846 137.756 113.1 137.756 111.803C137.756 110.489 138.842 109.921 140.334 109.759L144.146 109.337V108.721C144.146 107.164 143.465 106.548 141.713 106.548C139.994 106.548 139.086 107.164 139.086 108.575V108.64H137.934V108.575C137.934 106.888 139.329 105.509 141.794 105.509C144.227 105.509 145.265 106.904 145.265 108.672V113.684H144.227V111.527H144.146C143.676 113.003 142.265 113.846 140.399 113.846ZM138.907 111.722C138.907 112.533 139.442 112.954 140.659 112.954C142.605 112.954 144.146 112.095 144.146 110.165V110.1L140.691 110.489C139.491 110.602 138.907 110.894 138.907 111.722ZM148.6 113.684H147.448V105.672H148.486V108.186H148.567C148.843 106.823 149.978 105.509 151.973 105.509C154.228 105.509 155.347 107.115 155.347 109.013V113.684H154.195V109.175C154.195 107.521 153.401 106.564 151.568 106.564C149.621 106.564 148.6 107.748 148.6 109.808V113.684ZM161.338 113.846C158.776 113.846 157.105 112.111 157.105 109.678C157.105 107.245 158.776 105.509 161.338 105.509C163.577 105.509 165.329 106.84 165.329 108.77V108.899H164.193V108.802C164.193 107.375 163.155 106.564 161.322 106.564C159.181 106.564 158.257 107.715 158.257 109.678C158.257 111.641 159.181 112.792 161.322 112.792C163.155 112.792 164.193 111.981 164.193 110.554V110.457H165.329V110.586C165.329 112.516 163.577 113.846 161.338 113.846ZM170.973 113.846C168.394 113.846 166.756 112.224 166.756 109.678C166.756 107.245 168.378 105.509 170.957 105.509C173.309 105.509 174.979 106.872 174.979 109.256C174.979 109.548 174.947 109.791 174.898 110.002H167.843C167.908 111.803 168.832 112.889 170.957 112.889C172.838 112.889 173.714 112.192 173.714 111.024V110.911H174.866V111.024C174.866 112.695 173.211 113.846 170.973 113.846ZM170.941 106.466C168.865 106.466 167.924 107.537 167.843 109.289H173.893C173.893 109.208 173.893 109.126 173.893 109.045C173.893 107.359 172.822 106.466 170.941 106.466Z" fill="#F6F6F6"/>
<path d="M43.3574 153.355H39.7891V150.96C35.7364 150.526 33.4935 148.538 33.4935 145.046V144.893H37.3167V145.352C37.3167 146.932 38.1068 147.57 41.5732 147.57C44.6318 147.57 45.3455 147.111 45.3455 145.964C45.3455 144.919 44.7592 144.537 43.0006 144.231L38.2088 143.543C35.1502 143.058 33.3405 141.529 33.3405 138.751C33.3405 136.406 35.0992 133.933 39.7891 133.526V131.181H43.3574V133.628C47.1042 134.239 48.8628 136.431 48.8628 139.49V139.643H45.0141V139.286C45.0141 137.655 44.173 136.967 40.7831 136.967C38.0304 136.967 37.1893 137.502 37.1893 138.598C37.1893 139.592 37.75 139.949 39.1773 140.204L43.9691 140.968C47.7923 141.58 49.1687 143.441 49.1687 145.785C49.1687 148.232 47.4865 150.475 43.3574 150.96V153.355ZM65.4578 150.807H50.2924V148.36C50.2924 145.352 51.5923 143.797 55.1861 142.599L59.5701 141.172C61.0994 140.637 61.6601 140.127 61.6601 139.006C61.6601 137.706 60.9464 136.967 58.1427 136.967C55.0077 136.967 54.0646 137.91 54.0646 139.796V140.127H50.3179V139.796C50.3179 136.482 52.5863 133.475 58.2702 133.475C63.4188 133.475 65.5088 135.82 65.5088 139.057C65.5088 142.09 63.5207 143.593 60.4876 144.435L56.7664 145.454C55.1096 145.964 54.3195 146.448 54.3195 147.799L58.7799 147.366H65.4578V150.807ZM75.081 151.062C69.7285 151.062 66.9248 149.252 66.9248 145.505V145.276H70.8755V145.505C70.8755 146.958 71.895 147.57 75.132 147.57C78.0631 147.57 78.9552 146.881 78.9552 145.021C78.9552 143.135 78.0631 142.447 75.1575 142.447C72.8126 142.447 71.5381 142.727 70.9264 143.619L70.6461 143.593V143.619L67.0522 143.517L68.0208 133.73H82.0903V137.17H71.4107L70.8755 141.631L71.1048 141.656C71.7166 140.662 73.5262 139.413 76.7122 139.413C80.9178 139.413 83.0078 141.452 83.0078 144.97C83.0078 148.666 80.51 151.062 75.081 151.062ZM86.0999 154.4H84.749V152.03H85.9979C86.5077 152.03 86.7626 151.903 86.7626 151.24V150.807H84.5961V146.346H89.5153V151.214C89.5153 153.355 88.2664 154.4 86.0999 154.4ZM99.1735 151.062C94.4837 151.062 91.5016 148.819 91.5016 145.327V145.123H95.7581V145.327C95.7581 146.805 96.7011 147.391 99.1735 147.391C102.181 147.391 103.379 146.372 103.379 142.854V141.733H103.099C102.385 143.135 100.55 144.282 97.4913 144.282C93.2857 144.282 90.9408 142.574 90.9408 139.082C90.9408 135.667 93.6171 133.475 98.6892 133.475C104.908 133.475 107.457 136.176 107.457 142.166C107.457 148.156 104.169 151.062 99.1735 151.062ZM98.8931 141.631C102.079 141.631 103.073 140.917 103.073 139.362C103.073 137.884 102.054 137.145 98.8931 137.145C95.86 137.145 94.9425 137.859 94.9425 139.362C94.9425 140.943 95.8345 141.631 98.8931 141.631ZM117.4 151.062C111.895 151.062 108.862 147.595 108.862 142.268C108.862 136.967 111.895 133.475 117.4 133.475C122.88 133.475 125.939 136.967 125.939 142.268C125.939 147.595 122.88 151.062 117.4 151.062ZM117.4 147.34C120.637 147.34 121.835 145.938 121.835 142.268C121.835 138.598 120.637 137.196 117.4 137.196C114.138 137.196 112.965 138.598 112.965 142.268C112.965 145.938 114.138 147.34 117.4 147.34ZM135.006 150.807H131.183V138.47H126.799V135.845H127.513C129.399 135.845 130.673 135.412 131.514 133.73H135.006V150.807ZM141.711 150.807H136.792V146.346H141.711V150.807ZM151.65 151.062C146.144 151.062 143.111 147.595 143.111 142.268C143.111 136.967 146.144 133.475 151.65 133.475C157.13 133.475 160.188 136.967 160.188 142.268C160.188 147.595 157.13 151.062 151.65 151.062ZM151.65 147.34C154.887 147.34 156.085 145.938 156.085 142.268C156.085 138.598 154.887 137.196 151.65 137.196C148.387 137.196 147.215 138.598 147.215 142.268C147.215 145.938 148.387 147.34 151.65 147.34ZM166.478 150.807H161.558V146.346H166.478V150.807Z" fill="#FEFEFE"/>
<path d="M178.177 150.807H175.397V148.434H167.519V146.543L174.952 138.387H178.177V145.931H180.068V148.434H178.177V150.807ZM171.393 145.931H175.397V141.594H175.193L171.393 145.728V145.931ZM186.483 150.807H183.702V141.835H180.514V139.926H181.033C182.405 139.926 183.331 139.61 183.943 138.387H186.483V150.807Z" fill="#DADADA"/>
<path d="M38.561 188.222H36.6146V186.915C34.4041 186.679 33.1807 185.594 33.1807 183.69V183.606H35.2661V183.856C35.2661 184.718 35.697 185.066 37.5878 185.066C39.2561 185.066 39.6454 184.816 39.6454 184.19C39.6454 183.62 39.3256 183.412 38.3664 183.245L35.7527 182.869C34.0843 182.605 33.0973 181.771 33.0973 180.256C33.0973 178.977 34.0565 177.628 36.6146 177.406V176.127H38.561V177.461C40.6047 177.795 41.564 178.991 41.564 180.659V180.742H39.4647V180.548C39.4647 179.658 39.0059 179.283 37.1568 179.283C35.6553 179.283 35.1966 179.574 35.1966 180.172C35.1966 180.714 35.5024 180.909 36.281 181.048L38.8947 181.465C40.98 181.799 41.7308 182.814 41.7308 184.093C41.7308 185.427 40.8132 186.651 38.561 186.915V188.222ZM46.7555 186.832H44.6701V180.103H42.2788V178.671H42.6681C43.6969 178.671 44.392 178.434 44.8508 177.517H46.7555V186.832ZM48.6657 188.792H47.9289V187.499H48.6101C48.8882 187.499 49.0272 187.429 49.0272 187.068V186.832H47.8455V184.399H50.5287V187.054C50.5287 188.222 49.8475 188.792 48.6657 188.792ZM55.9544 186.971C53.0348 186.971 51.5055 185.984 51.5055 183.94V183.815H53.6604V183.94C53.6604 184.732 54.2166 185.066 55.9822 185.066C57.581 185.066 58.0676 184.691 58.0676 183.676C58.0676 182.647 57.581 182.272 55.9961 182.272C54.717 182.272 54.0219 182.424 53.6883 182.911L53.5353 182.897V182.911L51.5751 182.855L52.1034 177.517H59.7776V179.394H53.9524L53.6604 181.827L53.7856 181.841C54.1192 181.298 55.1063 180.617 56.8442 180.617C59.1381 180.617 60.2781 181.729 60.2781 183.648C60.2781 185.664 58.9156 186.971 55.9544 186.971ZM69.435 186.832H61.1629V185.497C61.1629 183.856 61.872 183.008 63.8323 182.355L66.2235 181.576C67.0577 181.284 67.3635 181.006 67.3635 180.395C67.3635 179.686 66.9743 179.283 65.445 179.283C63.7349 179.283 63.2205 179.797 63.2205 180.826V181.006H61.1769V180.826C61.1769 179.018 62.4142 177.378 65.5145 177.378C68.3228 177.378 69.4628 178.657 69.4628 180.423C69.4628 182.077 68.3784 182.897 66.724 183.356L64.6942 183.912C63.7905 184.19 63.3596 184.454 63.3596 185.191L65.7925 184.955H69.435V186.832ZM74.5218 186.832H72.4364V180.103H70.0452V178.671H70.4345C71.4632 178.671 72.1584 178.434 72.6172 177.517H74.5218V186.832ZM78.2951 186.832H75.6118V184.399H78.2951V186.832ZM87.0296 186.832H84.9442V185.052H79.0356V183.634L84.6105 177.517H87.0296V183.175H88.4476V185.052H87.0296V186.832ZM81.9412 183.175H84.9442V179.922H84.7912L81.9412 183.022V183.175Z" fill="#FEFEFE"/>
<g opacity="0.8" filter="url(#filter1_d_1_1669)">
<rect x="199.637" y="129.868" width="71.8303" height="28.6342" rx="11.5855" fill="#2A4037"/>
<path d="M212.576 142.155C213.034 141.467 214.045 141.467 214.504 142.155L216.973 145.859C217.486 146.629 216.934 147.661 216.009 147.661H211.07C210.145 147.661 209.593 146.629 210.106 145.859L212.576 142.155Z" fill="#07F8B5"/>
<path d="M228.323 149.347C225.144 149.347 223.116 148.358 223.116 146.201C223.116 144.562 224.284 143.8 225.695 143.508V143.33C224.268 143.086 223.441 142.292 223.441 141.01C223.441 139.258 225.111 138.156 228.307 138.156C231.534 138.156 233.189 139.258 233.189 141.01C233.189 142.292 232.378 143.086 230.918 143.33V143.508C232.443 143.8 233.497 144.562 233.497 146.201C233.497 148.358 231.453 149.347 228.323 149.347ZM228.307 142.746C230.188 142.746 230.756 142.389 230.756 141.627C230.756 140.848 230.269 140.491 228.307 140.491C226.393 140.491 225.874 140.848 225.874 141.627C225.874 142.389 226.457 142.746 228.307 142.746ZM228.307 147.012C230.399 147.012 231.031 146.638 231.031 145.698C231.031 144.789 230.431 144.416 228.307 144.416C226.182 144.416 225.582 144.789 225.582 145.698C225.582 146.638 226.198 147.012 228.307 147.012ZM239.302 149.185H236.869V141.335H234.079V139.664H234.533C235.733 139.664 236.544 139.388 237.079 138.318H239.302V149.185ZM245.906 149.347C242.403 149.347 240.473 147.141 240.473 143.751C240.473 140.378 242.403 138.156 245.906 138.156C249.394 138.156 251.34 140.378 251.34 143.751C251.34 147.141 249.394 149.347 245.906 149.347ZM245.906 146.979C247.966 146.979 248.729 146.087 248.729 143.751C248.729 141.416 247.966 140.524 245.906 140.524C243.83 140.524 243.084 141.416 243.084 143.751C243.084 146.087 243.83 146.979 245.906 146.979ZM254.939 143.557C253.139 143.557 252.084 142.47 252.084 140.848C252.084 139.226 253.139 138.123 254.939 138.123C256.756 138.123 257.81 139.226 257.81 140.848C257.81 142.47 256.756 143.557 254.939 143.557ZM255.004 149.185H252.652L261.881 138.318H264.233L255.004 149.185ZM254.939 141.967C255.799 141.967 256.074 141.659 256.074 140.848C256.074 140.037 255.799 139.713 254.939 139.713C254.096 139.713 253.82 140.037 253.82 140.848C253.82 141.659 254.096 141.967 254.939 141.967ZM261.93 149.363C260.129 149.363 259.059 148.277 259.059 146.655C259.059 145.033 260.129 143.946 261.93 143.946C263.73 143.946 264.801 145.033 264.801 146.655C264.801 148.277 263.73 149.363 261.93 149.363ZM261.93 147.774C262.773 147.774 263.065 147.466 263.065 146.655C263.065 145.844 262.773 145.519 261.93 145.519C261.086 145.519 260.794 145.844 260.794 146.655C260.794 147.466 261.086 147.774 261.93 147.774Z" fill="#07F8B5"/>
</g>
<path d="M9.67446 428.016L6.15857 427.948H12.982C16.7677 427.634 22.0108 426.214 27.2539 420.333C34.2857 412.446 41.3174 396.537 48.3492 390.018C55.381 383.5 62.4128 386.374 69.4445 382.997C76.4763 379.621 83.5081 369.995 90.5398 366.68C97.5716 363.365 104.603 366.362 111.635 363.171C118.667 359.98 125.699 350.601 132.73 350.659C139.762 350.718 146.794 360.212 153.826 359.514C160.858 358.815 167.889 347.923 174.921 342.138C181.953 336.353 188.985 335.676 196.016 337.207C203.048 338.737 210.08 342.475 217.112 342.541C224.144 342.608 231.175 339.004 238.207 336.358C245.239 333.712 252.271 332.025 259.302 326.081C266.334 320.137 273.366 309.937 280.398 306.961C287.43 303.985 294.461 308.234 301.493 306.032C308.525 303.829 315.557 295.176 322.588 285.804C329.62 276.431 336.652 266.338 343.684 265.196C350.715 264.053 357.747 271.861 364.779 273.043C371.811 274.225 378.843 268.782 385.874 267.866C392.906 266.95 399.938 270.561 406.97 264.483C414.001 258.405 421.033 242.637 428.065 232.866C435.097 223.094 442.129 219.318 449.16 216.163C456.192 213.007 463.224 210.472 470.256 208.254C477.287 206.037 484.319 204.137 491.351 204.467C498.383 204.797 505.414 207.355 508.93 208.635L512.446 209.914V427.948H12.982C11.6906 428.055 10.5688 428.033 9.67446 428.016Z" fill="url(#paint0_linear_1_1669)"/>
<g opacity="0.4">
<path d="M253.648 378.31H252.661V370.9H250.465V370.149H250.951C251.98 370.149 252.48 369.871 252.842 368.995H253.648V378.31ZM256.288 378.31H255.301V368.995H256.288V373.166H262.28V368.995H263.267V378.31H262.28V374.07H256.288V378.31Z" fill="#FEFEFE"/>
<path d="M298.527 378.31H297.526V376.336H291.562V375.613L297.359 368.995H298.527V375.432H300.265V376.336H298.527V378.31ZM292.925 375.432H297.526V370.191H297.457L292.925 375.349V375.432ZM302.431 378.31H301.444V368.995H302.431V373.166H308.423V368.995H309.41V378.31H308.423V374.07H302.431V378.31Z" fill="#FEFEFE"/>
<path d="M339.033 378.31H338.046V370.9H335.849V370.149H336.336C337.364 370.149 337.865 369.871 338.226 368.995H339.033V378.31ZM344.759 378.31H340.713V368.995H344.759C347.553 368.995 349.333 370.803 349.333 373.653C349.333 376.503 347.553 378.31 344.759 378.31ZM344.759 369.899H341.714V377.406H344.759C347.122 377.406 348.29 376.183 348.29 373.653C348.29 371.122 347.122 369.899 344.759 369.899Z" fill="#FEFEFE"/>
<path d="M380.072 378.324H378.974C378.974 373.903 380.99 371.623 383.006 369.968V369.899H376.736V368.995H384.132V369.802C381.379 372.221 380.072 374.487 380.072 378.324ZM389.148 378.31H385.102V368.995H389.148C391.942 368.995 393.722 370.803 393.722 373.653C393.722 376.503 391.942 378.31 389.148 378.31ZM389.148 369.899H386.103V377.406H389.148C391.511 377.406 392.679 376.183 392.679 373.653C392.679 371.122 391.511 369.899 389.148 369.899Z" fill="#FEFEFE"/>
</g>
<path d="M198.296 378.449C195.488 378.449 194.292 377.1 194.292 375.349V375.126H195.321V375.307C195.321 376.767 196.03 377.504 198.268 377.504C200.354 377.504 201.188 376.934 201.188 375.613C201.188 374.431 200.368 373.875 198.95 373.875H196.433V373.027H198.741C200.145 373.027 200.91 372.513 200.91 371.456C200.91 370.344 200.229 369.802 198.227 369.802C196.1 369.802 195.321 370.538 195.321 371.998V372.123H194.292V371.957C194.292 370.233 195.53 368.856 198.296 368.856C200.576 368.856 201.897 369.76 201.897 371.303C201.897 372.346 201.285 373.124 200.117 373.333V373.43C201.438 373.68 202.189 374.487 202.189 375.724C202.189 377.462 200.701 378.449 198.296 378.449ZM207.441 378.449C204.785 378.449 203.117 376.656 203.117 373.653C203.117 370.664 204.785 368.856 207.441 368.856C210.082 368.856 211.751 370.664 211.751 373.653C211.751 376.656 210.082 378.449 207.441 378.449ZM207.441 377.504C209.596 377.504 210.708 376.252 210.708 373.653C210.708 371.053 209.596 369.802 207.441 369.802C205.272 369.802 204.16 371.053 204.16 373.653C204.16 376.252 205.272 377.504 207.441 377.504ZM214.064 378.31H213.077V371.442H213.967V373.514H214.022C214.217 372.36 215.01 371.303 216.72 371.303C218.249 371.303 219.111 372.248 219.333 373.583H219.403C219.597 372.401 220.418 371.303 222.142 371.303C223.935 371.303 224.867 372.568 224.867 374.306V378.31H223.879V374.445C223.879 372.916 223.226 372.207 221.78 372.207C220.126 372.207 219.458 373.166 219.458 374.987V378.31H218.471V374.445C218.471 372.916 217.832 372.207 216.386 372.207C214.718 372.207 214.064 373.166 214.064 374.987V378.31Z" fill="#FEFEFE"/>
<path d="M32.6605 298.852H297.229" stroke="#767676" stroke-width="1.15855" stroke-linecap="round" stroke-linejoin="round" stroke-dasharray="8.11"/>
<path d="M32.6605 252.51H436.729" stroke="#767676" stroke-width="1.15855" stroke-linecap="round" stroke-linejoin="round" stroke-dasharray="8.11"/>
<path d="M32.6605 345.194H144.501" stroke="#767676" stroke-width="1.15855" stroke-linecap="round" stroke-linejoin="round" stroke-dasharray="8.11"/>
<circle opacity="0.4" cx="474.214" cy="212.54" r="35.9151" fill="url(#paint1_radial_1_1669)"/>
<circle cx="475.457" cy="207.905" r="7.5306" fill="#89B9FF" stroke="#181818" stroke-width="3.47566"/>
<path d="M376.896 149.978C376.896 144.859 381.045 140.709 386.164 140.709H466.104C471.223 140.709 475.373 144.859 475.373 149.978V192.844H386.164C381.045 192.844 376.896 188.695 376.896 183.576V149.978Z" fill="white"/>
<line x1="474.793" y1="184.734" x2="474.793" y2="202.113" stroke="#89B9FF" stroke-width="1.15855"/>
<path d="M395.833 182.039H394.682V173.394H392.119V172.518H392.687C393.887 172.518 394.471 172.193 394.893 171.172H395.833V182.039ZM402.349 182.201C399.364 182.201 397.678 180.871 397.678 178.86V178.633H398.862V178.86C398.862 180.417 400.094 181.147 402.365 181.147C404.393 181.147 405.544 180.449 405.544 178.649C405.544 176.881 404.425 176.2 402.381 176.2C400.743 176.2 399.738 176.54 398.943 177.076L398.894 177.059V177.076L397.824 176.913L398.375 171.172H406.29V172.226H399.381L398.959 176.378L399.04 176.394C399.738 175.81 401.1 175.243 402.722 175.243C405.106 175.243 406.761 176.427 406.761 178.649C406.761 180.839 405.074 182.201 402.349 182.201ZM409.561 182.039H408.134V179.784H409.561V182.039ZM414.399 182.055H413.118C413.118 176.897 415.47 174.237 417.822 172.307V172.226H410.506V171.172H419.135V172.112C415.924 174.935 414.399 177.578 414.399 182.055ZM424.774 182.201C421.806 182.201 419.973 181.163 419.973 179.087C419.973 177.741 420.914 176.703 422.698 176.346V176.232C421.125 176.021 420.265 175.064 420.265 173.832C420.265 172.161 421.806 171.009 424.774 171.009C427.759 171.009 429.283 172.161 429.283 173.832C429.283 175.064 428.424 176.021 426.85 176.232V176.346C428.667 176.703 429.575 177.741 429.575 179.087C429.575 181.163 427.726 182.201 424.774 182.201ZM424.774 175.956C427.078 175.956 428.132 175.324 428.132 174.043C428.132 172.842 427.321 172.112 424.774 172.112C422.244 172.112 421.417 172.842 421.417 174.043C421.417 175.324 422.471 175.956 424.774 175.956ZM424.774 181.098C427.353 181.098 428.408 180.449 428.408 178.908C428.408 177.497 427.321 176.784 424.774 176.784C422.228 176.784 421.141 177.497 421.141 178.908C421.141 180.449 422.179 181.098 424.774 181.098ZM435.892 182.201C432.794 182.201 430.847 180.109 430.847 176.605C430.847 173.118 432.794 171.009 435.892 171.009C438.973 171.009 440.92 173.118 440.92 176.605C440.92 180.109 438.973 182.201 435.892 182.201ZM435.892 181.098C438.406 181.098 439.703 179.638 439.703 176.605C439.703 173.572 438.406 172.112 435.892 172.112C433.361 172.112 432.064 173.572 432.064 176.605C432.064 179.638 433.361 181.098 435.892 181.098ZM442.595 183.466H442.254V182.769H442.578C442.789 182.769 442.903 182.72 442.903 182.428V182.039H442.27V179.784H443.698V182.412C443.698 183.126 443.276 183.466 442.595 183.466ZM450.093 182.201C446.995 182.201 445.049 180.109 445.049 176.605C445.049 173.118 446.995 171.009 450.093 171.009C453.175 171.009 455.121 173.118 455.121 176.605C455.121 180.109 453.175 182.201 450.093 182.201ZM450.093 181.098C452.607 181.098 453.905 179.638 453.905 176.605C453.905 173.572 452.607 172.112 450.093 172.112C447.563 172.112 446.265 173.572 446.265 176.605C446.265 179.638 447.563 181.098 450.093 181.098ZM459.861 182.039H458.71V173.394H456.147V172.518H456.715C457.915 172.518 458.499 172.193 458.921 171.172H459.861V182.039Z" fill="#181818"/>
<path d="M394.082 163.502H392.93V152.635H394.195L399.888 160.015L401.202 161.831H401.299L401.267 160.047V152.635H402.419V163.502H401.153L395.493 156.203L394.13 154.37H394.049L394.082 156.187V163.502ZM409.49 163.502H408.322V159.642L403.602 152.635H405.013L407.997 157.063L408.89 158.393H408.987L409.863 157.063L412.831 152.635H414.242L409.49 159.642V163.502ZM419.664 163.664C416.469 163.664 414.977 162.14 414.977 160.063V159.966H416.145V160.177C416.145 161.734 417.118 162.578 419.664 162.578C421.838 162.578 422.827 161.977 422.827 160.745C422.827 159.528 422.097 159.09 420.508 158.766L418.204 158.328C416.436 157.987 415.025 157.241 415.025 155.441C415.025 153.965 416.29 152.473 419.405 152.473C422.47 152.473 423.833 154.095 423.833 156.073V156.171H422.665V155.976C422.665 154.403 421.692 153.559 419.324 153.559C417.166 153.559 416.193 154.176 416.193 155.36C416.193 156.592 416.907 156.965 418.513 157.306L420.8 157.76C422.746 158.133 423.995 158.961 423.995 160.647C423.995 162.204 422.681 163.664 419.664 163.664ZM434.035 163.502H425.779V152.635H434.035V153.689H426.931V157.517H433.792V158.555H426.931V162.448H434.035V163.502Z" fill="#181818"/>
<defs>
<filter id="filter0_d_1_1669" x="0.365788" y="0.524341" width="516.715" height="440.25" filterUnits="userSpaceOnUse" color-interpolation-filters="sRGB">
<feFlood flood-opacity="0" result="BackgroundImageFix"/>
<feColorMatrix in="SourceAlpha" type="matrix" values="0 0 0 0 0 0 0 0 0 0 0 0 0 0 0 0 0 0 127 0" result="hardAlpha"/>
<feOffset dy="1.15855"/>
<feGaussianBlur stdDeviation="2.31711"/>
<feComposite in2="hardAlpha" operator="out"/>
<feColorMatrix type="matrix" values="0 0 0 0 0 0 0 0 0 0 0 0 0 0 0 0 0 0 0.1 0"/>
<feBlend mode="normal" in2="BackgroundImageFix" result="effect1_dropShadow_1_1669"/>
<feBlend mode="normal" in="SourceGraphic" in2="effect1_dropShadow_1_1669" result="shape"/>
</filter>
<filter id="filter1_d_1_1669" x="171.832" y="111.331" width="127.441" height="84.2448" filterUnits="userSpaceOnUse" color-interpolation-filters="sRGB">
<feFlood flood-opacity="0" result="BackgroundImageFix"/>
<feColorMatrix in="SourceAlpha" type="matrix" values="0 0 0 0 0 0 0 0 0 0 0 0 0 0 0 0 0 0 127 0" result="hardAlpha"/>
<feOffset dy="9.26842"/>
<feGaussianBlur stdDeviation="13.9026"/>
<feColorMatrix type="matrix" values="0 0 0 0 0.964706 0 0 0 0 0.109804 0 0 0 0 0.478431 0 0 0 0.01 0"/>
<feBlend mode="normal" in2="BackgroundImageFix" result="effect1_dropShadow_1_1669"/>
<feBlend mode="normal" in="SourceGraphic" in2="effect1_dropShadow_1_1669" result="shape"/>
</filter>
<linearGradient id="paint0_linear_1_1669" x1="291.026" y1="160.485" x2="285.949" y2="428.03" gradientUnits="userSpaceOnUse">
<stop stop-color="#B4EF0D"/>
<stop offset="1"/>
</linearGradient>
<radialGradient id="paint1_radial_1_1669" cx="0" cy="0" r="1" gradientUnits="userSpaceOnUse" gradientTransform="translate(474.214 212.54) rotate(28.005) scale(47.5261)">
<stop stop-color="#D0F5A1"/>
<stop offset="0.723902" stop-color="#7CFE15" stop-opacity="0.1"/>
</radialGradient>
</defs>
</svg>
