<svg width="165" height="77" viewBox="0 0 165 77" fill="none" xmlns="http://www.w3.org/2000/svg">
<path d="M3.1767 14.5044H1.5126V4.18081H6.8747C9.21677 4.18081 10.6652 5.29021 10.6652 7.21625C10.6652 8.92658 9.54035 9.97434 7.5989 10.0822V10.1901C8.40013 10.4058 8.76993 10.868 9.13973 11.5152L10.8655 14.5044H8.95483L7.30614 11.6539C6.84389 10.8372 6.36623 10.4982 5.07193 10.4982H3.1767V14.5044ZM3.1767 5.67542V9.21934H6.8593C8.24605 9.21934 8.93942 8.74168 8.93942 7.44738C8.93942 6.18389 8.24605 5.67542 6.8593 5.67542H3.1767ZM15.7172 14.6585C13.2056 14.6585 11.5569 13.2409 11.5569 10.6831C11.5569 8.29484 13.1902 6.69237 15.6863 6.69237C18.0592 6.69237 19.6771 8.00208 19.6771 10.3287C19.6771 10.6061 19.6617 10.8218 19.6155 11.0529H13.1132C13.1748 12.5321 13.899 13.318 15.6709 13.318C17.2734 13.318 17.936 12.7941 17.936 11.885V11.7617H19.6001V11.9004C19.6001 13.5337 17.9976 14.6585 15.7172 14.6585ZM15.6555 8.00208C13.9606 8.00208 13.221 8.75709 13.1286 10.1284H18.1055V10.0976C18.1055 8.68004 17.2888 8.00208 15.6555 8.00208ZM22.5876 14.5044H20.9235V6.84645H22.4489V9.21934H22.5568C22.7879 7.92504 23.8049 6.69237 25.7463 6.69237C27.8727 6.69237 28.9204 8.12534 28.9204 9.8973V14.5044H27.2563V10.3441C27.2563 8.91117 26.6092 8.18698 25.0221 8.18698C23.3426 8.18698 22.5876 9.04984 22.5876 10.7139V14.5044ZM35.4263 14.5044H33.6698C32.0211 14.5044 31.0042 13.7802 31.0042 11.9158V8.2332H29.7099V6.84645H31.0042V5.16694H32.6528V6.84645H35.4263V8.2332H32.6528V11.8233C32.6528 12.7633 33.0843 13.0098 34.0396 13.0098H35.4263V14.5044ZM37.1606 14.8126H35.3887L40.9357 3.87264H42.7076L37.1606 14.8126ZM44.7672 14.5044H43.1031V4.18081H45.3681L48.3419 10.1592L49.2818 12.301H49.4051L50.3142 10.1592L53.2572 4.18081H55.5222V14.5044H53.8581V8.17157L53.9197 6.67696H53.7964L53.1647 8.17157L50.3142 13.8881H48.3111L45.4605 8.17157L44.8288 6.67696H44.7055L44.7672 8.17157V14.5044ZM60.9806 14.6585C58.4382 14.6585 56.7279 13.0406 56.7279 10.6831C56.7279 8.29484 58.4382 6.69237 60.9806 6.69237C63.5384 6.69237 65.2487 8.29484 65.2487 10.6831C65.2487 13.0406 63.5384 14.6585 60.9806 14.6585ZM60.9806 13.1793C62.845 13.1793 63.6154 12.301 63.6154 10.6831C63.6154 9.04984 62.845 8.15616 60.9806 8.15616C59.1316 8.15616 58.3612 9.04984 58.3612 10.6831C58.3612 12.301 59.1316 13.1793 60.9806 13.1793ZM68.1204 14.5044H66.4563V6.84645H67.9817V8.91117H68.0896C68.3207 7.6785 69.1528 6.69237 70.7244 6.69237C72.4656 6.69237 73.2206 7.94044 73.2206 9.38883V10.3904H71.5719V9.7124C71.5719 8.61841 71.1096 8.10994 69.9694 8.10994C68.6597 8.10994 68.1204 8.83413 68.1204 10.2055V14.5044ZM79.2889 14.5044H77.5324C75.8837 14.5044 74.8667 13.7802 74.8667 11.9158V8.2332H73.5724V6.84645H74.8667V5.16694H76.5154V6.84645H79.2889V8.2332H76.5154V11.8233C76.5154 12.7633 76.9469 13.0098 77.9022 13.0098H79.2889V14.5044ZM83.658 13.811C81.3776 13.811 80.0217 12.378 80.0217 10.2517C80.0217 8.12534 81.4392 6.69237 83.7659 6.69237C85.3684 6.69237 86.5702 7.41656 86.8476 8.75709H86.94V6.84645H88.4654V13.6107C88.4654 16.1839 86.863 17.2779 84.3514 17.2779C82.0864 17.2779 80.5147 16.2147 80.5147 14.3657H82.1634C82.1634 15.4751 82.8106 15.8911 84.4439 15.8911C86.185 15.8911 86.8168 15.4135 86.8168 13.7032V11.8233H86.7089C86.4315 12.979 85.3992 13.811 83.658 13.811ZM81.7012 10.2517C81.7012 11.8233 82.6257 12.378 84.1973 12.378C85.8923 12.378 86.8168 11.6693 86.8168 10.3133V10.0976C86.8168 8.80331 85.8614 8.14075 84.2436 8.14075C82.6411 8.14075 81.7012 8.68004 81.7012 10.2517ZM92.2548 14.6585C90.6678 14.6585 89.6662 13.9189 89.6662 12.6554C89.6662 11.469 90.6215 10.8526 92.1315 10.6831L95.6138 10.3133V9.86649C95.6138 8.603 95.0591 8.15616 93.5953 8.15616C92.1778 8.15616 91.4844 8.61841 91.4844 9.74322V9.80485H89.8357V9.74322C89.8357 8.00208 91.2841 6.69237 93.7186 6.69237C96.1531 6.69237 97.2471 8.01749 97.2471 9.85108V14.5044H95.7217V12.5938H95.6138C95.2132 13.8881 93.996 14.6585 92.2548 14.6585ZM91.3303 12.5475C91.3303 13.1639 91.7463 13.4566 92.7017 13.4566C94.4428 13.4566 95.6138 12.8095 95.6138 11.2995L92.6092 11.6384C91.7463 11.7463 91.3303 11.9466 91.3303 12.5475ZM102.061 13.811C99.7803 13.811 98.4244 12.378 98.4244 10.2517C98.4244 8.12534 99.842 6.69237 102.169 6.69237C103.771 6.69237 104.973 7.41656 105.25 8.75709H105.343V6.84645H106.868V13.6107C106.868 16.1839 105.266 17.2779 102.754 17.2779C100.489 17.2779 98.9175 16.2147 98.9175 14.3657H100.566C100.566 15.4751 101.213 15.8911 102.847 15.8911C104.588 15.8911 105.219 15.4135 105.219 13.7032V11.8233H105.112C104.834 12.979 103.802 13.811 102.061 13.811ZM100.104 10.2517C100.104 11.8233 101.028 12.378 102.6 12.378C104.295 12.378 105.219 11.6693 105.219 10.3133V10.0976C105.219 8.80331 104.264 8.14075 102.646 8.14075C101.044 8.14075 100.104 8.68004 100.104 10.2517ZM112.26 14.6585C109.748 14.6585 108.1 13.2409 108.1 10.6831C108.1 8.29484 109.733 6.69237 112.229 6.69237C114.602 6.69237 116.22 8.00208 116.22 10.3287C116.22 10.6061 116.205 10.8218 116.158 11.0529H109.656C109.718 12.5321 110.442 13.318 112.214 13.318C113.816 13.318 114.479 12.7941 114.479 11.885V11.7617H116.143V11.9004C116.143 13.5337 114.54 14.6585 112.26 14.6585ZM112.198 8.00208C110.503 8.00208 109.764 8.75709 109.671 10.1284H114.648V10.0976C114.648 8.68004 113.832 8.00208 112.198 8.00208Z" fill="white"/>
<path d="M13.5801 62.9927H8.66347V39.7751H1.19743V36.2697H2.65422C6.02304 36.2697 7.93508 35.4048 9.25529 32.4912H13.5801V62.9927ZM31.1996 63.4479C22.2768 63.4479 17.4511 59.9425 17.4511 53.7967V53.2959H22.4589V53.7967C22.4589 57.3931 25.1903 58.9865 31.2906 58.9865C36.7536 58.9865 39.2574 57.3476 39.2574 53.0683C39.2574 48.88 36.8446 47.2867 31.2906 47.2867C26.9203 47.2867 24.3709 48.0151 22.641 49.5629L22.3223 49.4719V49.5629L17.7698 49.2442L19.4087 32.4912H42.9449V36.9071H23.688L22.5954 46.877L22.9596 46.9225C24.5075 45.2381 28.0584 43.3716 33.1116 43.3716C40.2135 43.3716 44.4017 46.7859 44.4017 53.0683C44.4017 59.3962 39.8037 63.4479 31.1996 63.4479ZM49.0957 68.0914H47.4568V65.0868H48.9592C49.7331 65.0868 50.0973 64.9047 50.0973 63.9487V62.9927H47.3658V55.9364H53.5571V63.9032C53.5571 66.7257 51.9183 68.0914 49.0957 68.0914ZM69.9592 63.4479C61.355 63.4479 55.9831 60.5799 55.9831 54.6617C55.9831 50.4734 58.8967 47.9696 63.4036 47.0135V46.6493C59.2154 46.012 56.8481 43.5081 56.8481 40.0027C56.8481 35.2227 61.3095 32.0359 69.9592 32.0359C78.6089 32.0359 83.0703 35.2227 83.0703 40.0027C83.0703 43.5081 80.7485 46.012 76.4692 46.6493V47.0135C81.2038 47.9696 83.9352 50.4734 83.9352 54.6617C83.9352 60.5799 78.4723 63.4479 69.9592 63.4479ZM69.9592 45.4657C75.8774 45.4657 78.1991 44.0544 78.1991 41.0953C78.1991 38.2728 76.3326 36.6794 69.9592 36.6794C63.6312 36.6794 61.7647 38.2728 61.7647 41.0953C61.7647 44.0544 64.0865 45.4657 69.9592 45.4657ZM69.9592 58.8044C76.5602 58.8044 78.973 57.3021 78.973 53.7512C78.973 50.4279 76.5602 48.8345 69.9592 48.8345C63.3581 48.8345 60.9453 50.4279 60.9453 53.7512C60.9453 57.3021 63.3126 58.8044 69.9592 58.8044ZM101.334 63.4479C90.9087 63.4479 86.4928 58.7134 86.4928 47.6054C86.4928 37.772 91.6826 32.0359 100.97 32.0359C108.572 32.0359 113.808 35.8145 113.808 42.0058V42.37H108.39V42.0058C108.39 38.7736 106.387 36.6794 100.97 36.6794C94.232 36.6794 91.7281 39.7296 91.7281 46.968V49.3808H92.1378C93.2304 46.4217 97.009 44.1 102.791 44.1C110.302 44.1 114.581 47.5143 114.581 53.5691C114.581 59.5783 109.847 63.4479 101.334 63.4479ZM101.061 58.7589C107.115 58.7589 109.483 56.9379 109.483 53.2049C109.483 49.4263 107.161 47.6054 101.106 47.6054C95.1425 47.6054 92.3199 49.5629 92.3199 53.0228C92.3199 56.8469 95.0514 58.7589 101.061 58.7589ZM131.629 63.4479C122.707 63.4479 117.881 59.9425 117.881 53.7967V53.2959H122.889V53.7967C122.889 57.3931 125.62 58.9865 131.72 58.9865C137.183 58.9865 139.687 57.3476 139.687 53.0683C139.687 48.88 137.274 47.2867 131.72 47.2867C127.35 47.2867 124.801 48.0151 123.071 49.5629L122.752 49.4719V49.5629L118.2 49.2442L119.839 32.4912H143.375V36.9071H124.118L123.025 46.877L123.389 46.9225C124.937 45.2381 128.488 43.3716 133.541 43.3716C140.643 43.3716 144.832 46.7859 144.832 53.0683C144.832 59.3962 140.234 63.4479 131.629 63.4479Z" fill="#F0FF9D"/>
<path d="M159.13 41.0051H157.118V39.1335C153.858 38.8317 152.208 37.1412 152.208 34.5854V34.4646H154.381V34.7866C154.381 36.3966 155.327 37.2016 158.285 37.2016C160.861 37.2016 161.767 36.6381 161.767 35.3702C161.767 34.203 161.083 33.7603 159.372 33.4383L156.072 32.8949C153.797 32.4924 152.188 31.446 152.188 29.2322C152.188 27.421 153.576 25.5897 157.118 25.3482V23.4967H159.13V25.3683C162.27 25.7104 163.719 27.5418 163.719 29.9165V30.0372H161.566V29.7756C161.566 28.1254 160.579 27.3003 157.782 27.3003C155.327 27.3003 154.361 27.904 154.361 29.1115C154.361 30.2787 155.045 30.6611 156.635 31.0032L159.915 31.5667C162.612 32.0497 163.94 33.2773 163.94 35.2495C163.94 37.1412 162.511 38.9122 159.13 39.1537V41.0051Z" fill="white"/>
</svg>
