<svg width="188" height="46" viewBox="0 0 188 46" fill="none" xmlns="http://www.w3.org/2000/svg">
<g clip-path="url(#clip0_1_1479)">
<path fill-rule="evenodd" clip-rule="evenodd" d="M17.0953 11.0482H29.859C36.712 11.0482 39.2917 14.5234 38.8931 19.6289C38.2341 28.0578 33.1471 32.721 26.3995 32.721H22.9928C22.067 32.721 21.4443 33.3349 21.1939 34.9982L19.7475 44.668C19.652 45.295 19.3225 45.6581 18.8283 45.7076H10.8089C10.0545 45.7076 9.78758 45.13 9.98526 43.8792L14.8746 12.8799C15.0657 11.639 15.7444 11.0482 17.0953 11.0482Z" fill="#AEAEAE"/>
<path fill-rule="evenodd" clip-rule="evenodd" d="M72.509 10.4739C76.8152 10.4739 80.7886 12.8138 80.245 18.6453C79.5861 25.5759 75.8795 29.4108 70.0314 29.4273H64.9213C64.1866 29.4273 63.8308 30.0279 63.6397 31.2589L62.6513 37.5525C62.503 38.503 62.0154 38.9716 61.2971 38.9716H56.5429C55.7851 38.9716 55.5215 38.4865 55.6895 37.4007L59.6135 12.1768C59.8079 10.9359 60.2725 10.4739 61.1192 10.4739H72.4991H72.509ZM64.7665 23.9785H68.6377C71.0594 23.8861 72.6672 22.2063 72.8286 19.1767C72.9275 17.3054 71.6656 15.9655 69.6591 15.9754L66.0152 15.9919L64.7665 23.9785ZM93.1702 37.041C93.6051 36.6449 94.0466 36.4403 93.984 36.9288L93.8291 38.0971C93.75 38.7076 93.9906 39.031 94.5572 39.031H98.7811C99.4927 39.031 99.8387 38.7439 100.013 37.6416L102.616 21.2789C102.748 20.4572 102.547 20.0545 101.924 20.0545H97.2787C96.8602 20.0545 96.656 20.2889 96.5473 20.9291L96.3759 21.9357C96.287 22.4604 96.0465 22.5528 95.8224 22.0248C95.035 20.1568 93.0252 19.3186 90.2214 19.3846C83.7078 19.5199 79.3159 24.4736 78.8448 30.8233C78.4823 35.7341 81.9945 39.5921 86.6269 39.5921C89.9875 39.5921 91.4899 38.602 93.1834 37.0509L93.1702 37.041ZM89.6316 34.5229C86.8278 34.5229 84.8741 32.282 85.2793 29.5362C85.6846 26.7904 88.3072 24.5495 91.111 24.5495C93.9148 24.5495 95.8685 26.7904 95.4633 29.5362C95.058 32.282 92.4387 34.5229 89.6316 34.5229ZM110.883 20.0017H106.599C105.716 20.0017 105.357 20.6618 105.637 21.4736L110.955 37.0707L105.739 44.493C105.301 45.1134 105.641 45.6778 106.257 45.6778H111.07C111.351 45.7102 111.635 45.6613 111.888 45.5366C112.142 45.412 112.354 45.217 112.5 44.9748L128.855 21.4769C129.359 20.7542 129.122 19.9951 128.295 19.9951H123.739C122.958 19.9951 122.645 20.3054 122.197 20.9555L115.377 30.8563L112.329 20.9324C112.151 20.3318 111.706 20.0017 110.886 20.0017H110.883Z" fill="white"/>
<path fill-rule="evenodd" clip-rule="evenodd" d="M145.869 10.4739C150.175 10.4739 154.149 12.8138 153.605 18.6453C152.946 25.5759 149.24 29.4108 143.391 29.4273H138.285C137.55 29.4273 137.194 30.0279 137.003 31.2589L136.015 37.5525C135.866 38.503 135.379 38.9716 134.66 38.9716H129.906C129.148 38.9716 128.885 38.4865 129.053 37.4007L132.983 12.1702C133.178 10.9293 133.642 10.4673 134.489 10.4673H145.869V10.4739ZM138.126 23.9786H141.998C144.419 23.8861 146.027 22.2063 146.189 19.1767C146.288 17.3054 145.026 15.9655 143.019 15.9754L139.375 15.9919L138.126 23.9786ZM166.53 37.041C166.965 36.645 167.407 36.4403 167.344 36.9288L167.189 38.0971C167.11 38.7076 167.351 39.0311 167.917 39.0311H172.141C172.853 39.0311 173.199 38.7439 173.373 37.6416L175.976 21.2789C176.108 20.4572 175.907 20.0546 175.284 20.0546H170.645C170.227 20.0546 170.023 20.2889 169.914 20.9291L169.743 21.9357C169.654 22.4604 169.413 22.5528 169.189 22.0248C168.402 20.1569 166.392 19.3186 163.588 19.3846C157.074 19.5199 152.683 24.4736 152.211 30.8233C151.849 35.7341 155.361 39.5921 159.993 39.5921C163.354 39.5921 164.857 38.602 166.55 37.0509L166.53 37.041ZM162.995 34.5229C160.191 34.5229 158.237 32.282 158.643 29.5362C159.048 26.7904 161.671 24.5495 164.474 24.5495C167.278 24.5495 169.232 26.7904 168.827 29.5362C168.421 32.282 165.799 34.5229 162.995 34.5229ZM182.477 39.0574H177.6C177.516 39.0613 177.431 39.0462 177.353 39.0135C177.274 38.9808 177.204 38.9311 177.147 38.868C177.09 38.805 177.048 38.7301 177.023 38.6487C176.998 38.5674 176.992 38.4816 177.004 38.3974L181.287 11.2165C181.328 11.0309 181.43 10.8648 181.578 10.7449C181.725 10.6251 181.908 10.5586 182.098 10.5564H186.974C187.059 10.5526 187.143 10.5676 187.222 10.6004C187.3 10.6331 187.37 10.6828 187.427 10.7458C187.484 10.8089 187.527 10.8838 187.551 10.9651C187.576 11.0465 187.582 11.1323 187.57 11.2165L183.287 38.3974C183.248 38.5841 183.146 38.7518 182.998 38.873C182.851 38.9941 182.667 39.0615 182.477 39.0641V39.0574Z" fill="#C4C4C4"/>
<path fill-rule="evenodd" clip-rule="evenodd" d="M9.11245 0.378418H21.8893C25.4872 0.378418 29.7571 0.493927 32.6103 3.01863C34.518 4.70506 35.5196 7.38817 35.2889 10.2792C34.5048 20.0513 28.6699 25.5264 20.8416 25.5264H14.5421C13.4681 25.5264 12.7597 26.2393 12.4566 28.1666L10.6972 39.3875C10.5819 40.1136 10.2689 40.5426 9.70879 40.5954H1.82455C0.951448 40.5954 0.641742 39.9353 0.869077 38.4766L6.53598 2.51038C6.76332 1.06487 7.55734 0.378418 9.11245 0.378418Z" fill="#C4C4C4"/>
<path fill-rule="evenodd" clip-rule="evenodd" d="M12.6407 27.0281L14.8713 12.8799C15.0657 11.639 15.7444 11.0449 17.0952 11.0449H29.8589C31.9708 11.0449 33.6808 11.3749 35.0184 11.9855C33.7368 20.685 28.1193 25.5166 20.7655 25.5166H14.4759C13.6325 25.5199 13.013 25.9423 12.6407 27.0281Z" fill="white"/>
</g>
<defs>
<clipPath id="clip0_1_1479">
<rect width="186.787" height="45.3291" fill="white" transform="translate(0.796265 0.378418)"/>
</clipPath>
</defs>
</svg>
