<svg width="112" height="35" viewBox="0 0 112 35" fill="none" xmlns="http://www.w3.org/2000/svg">
<path d="M77.446 5.49001H74.6214V1.01636C74.6381 0.496947 74.2203 0.0613109 73.7022 0.0445557C73.6855 0.0445557 73.6687 0.0445557 73.652 0.0445557H73.4515C70.2926 0.882317 70.9779 5.1549 65.2618 5.49001H64.5097C64.025 5.60729 63.6908 6.04293 63.6908 6.52883V11.3543C63.6741 11.9575 64.1588 12.4434 64.7604 12.4602C64.7772 12.4602 64.7771 12.4602 64.7939 12.4602H67.7522V32.9351C67.7522 33.555 68.2368 33.9571 68.8552 33.9571H73.7356C74.3206 33.9739 74.822 33.5215 74.8387 32.9351V12.5272H77.5797C78.1814 12.5272 78.6661 12.0413 78.6828 11.4381V11.4214V6.59585C78.5491 5.97591 78.0644 5.49001 77.446 5.49001ZM111.14 9.82961C110.071 6.9142 107.296 4.97059 104.204 5.0041H104.137C102.149 4.98735 100.243 5.77485 98.8393 7.19904C97.452 5.77485 95.53 4.97059 93.5411 5.0041H93.4742C91.7193 5.02086 90.0313 5.62405 88.6607 6.72989V6.17697C88.6106 5.60729 88.1259 5.18841 87.5576 5.22192H82.6105C82.0088 5.22192 81.5241 5.69107 81.5074 6.29426V6.31101V32.9351C81.5074 33.5383 81.9753 34.0242 82.577 34.0409C82.5937 34.0409 82.5937 34.0409 82.6105 34.0409H87.5576C88.0758 34.0242 88.527 33.6556 88.6607 33.1529V13.6163C88.7276 12.7953 89.346 12.1083 90.3655 12.0245H91.268C91.6525 12.0413 92.0034 12.1921 92.2876 12.4434C92.7054 12.7785 92.9728 13.2812 92.9895 13.8174V32.9183C92.9895 33.5383 93.4742 33.9404 94.0926 33.9404H99.0398C99.6248 33.9404 100.093 33.488 100.143 32.9183V13.8174C100.126 13.1974 100.444 12.6277 100.962 12.3094C101.229 12.1418 101.547 12.0581 101.864 12.0245H102.75C103.703 12.0748 104.472 12.8623 104.472 13.8174V32.9183C104.472 33.5383 104.956 33.9404 105.575 33.9404H110.522C111.107 33.9571 111.608 33.5048 111.625 32.9183V12.3932C111.575 11.5219 111.408 10.6506 111.14 9.82961ZM32.2694 5.62405H25.3333C24.7483 5.60729 24.2469 6.07644 24.2302 6.66287V11.1365C24.2469 11.7565 24.7818 12.2591 25.4002 12.2424H32.1357C32.6705 12.3094 33.0716 12.745 33.1051 13.2812V13.9682C33.0549 14.4876 32.6538 14.9064 32.1357 14.9902H28.8431C24.4475 14.9902 21.3555 17.8219 21.3555 21.8096V27.121C21.3555 31.1255 24.0296 33.9404 28.3584 33.9404H37.4506C39.0885 33.9404 40.4089 32.7675 40.4089 31.2596V13.0131C40.3922 8.47244 37.9854 5.6408 32.2694 5.62405ZM33.1051 26.233V27.1378C33.0382 27.2048 33.0382 27.2048 33.0382 27.2718C32.9045 27.7577 32.4867 28.0258 31.9351 28.0258H29.8794C29.261 28.0425 28.7261 27.5399 28.7094 26.9199V22.7982C28.7261 22.1782 29.261 21.6756 29.8794 21.6923H31.9351C32.5535 21.6756 33.0716 22.1782 33.1051 22.7982V26.233ZM12.0628 14.387V17.3527C12.0461 17.9727 11.5112 18.4753 10.8928 18.4586H7.73398V12.4602H10.8928C11.5112 12.4434 12.0293 12.9293 12.0628 13.566V14.387ZM12.4806 5.49001H1.6837C1.11544 5.50676 0.66417 5.95915 0.647457 6.52883V32.9351C0.630743 33.5048 1.04858 33.9739 1.61684 34.0409H6.63089C7.21586 34.0577 7.71727 33.6053 7.73398 33.0021V25.479H12.4806C16.4083 25.479 19.1493 22.7814 19.1493 18.9277V12.1083C19.1493 8.1876 16.3916 5.49001 12.4806 5.49001ZM59.713 5.49001H54.7658C54.1808 5.47325 53.6794 5.9424 53.6627 6.52883V16.582C53.646 17.2187 53.1278 17.7046 52.4927 17.6878H50.437C49.8019 17.7046 49.2837 17.2019 49.267 16.582V6.59585C49.267 5.97591 48.7823 5.55703 48.1806 5.55703H43.3003C42.7153 5.54027 42.2139 6.00942 42.1972 6.59585V17.5538C42.1972 21.6923 45.2224 24.658 49.4843 24.658H52.7936C53.3618 24.725 53.7964 25.1942 53.8298 25.7638C53.8298 26.3503 53.3785 26.8194 52.7936 26.8697H45.5065C44.9215 26.8529 44.4201 27.3221 44.4034 27.9085V32.8681C44.4034 33.488 44.8881 33.9069 45.5065 33.9069H53.6125C57.8745 33.9069 60.8996 30.9412 60.8996 26.8027V6.44505C60.7659 5.89213 60.2812 5.47325 59.713 5.49001Z" fill="white"/>
</svg>
